<?xml version="1.0" standalone="no"?>
<!DOCTYPE svg PUBLIC "-//W3C//DTD SVG 20010904//EN"
 "http://www.w3.org/TR/2001/REC-SVG-20010904/DTD/svg10.dtd">
<svg version="1.0" xmlns="http://www.w3.org/2000/svg"
 width="504.000000pt" height="503.000000pt" viewBox="0 0 504.000000 503.000000"
 preserveAspectRatio="xMidYMid meet">

<g transform="translate(0.000000,503.000000) scale(0.100000,-0.100000)"
fill="#000000" stroke="none">
<path d="M0 2515 l0 -2515 2520 0 2520 0 0 2515 0 2515 -2520 0 -2520 0 0
-2515z m3000 2467 c44 -9 43 -10 -32 -11 -43 0 -78 3 -78 8 0 6 -9 8 -20 6
-11 -2 -20 1 -20 6 0 12 73 7 150 -9z m144 -31 c33 -6 62 -11 65 -12 3 0 -3
-4 -14 -9 -14 -6 -4 -9 38 -9 44 -1 57 -4 57 -16 0 -12 14 -15 70 -15 52 0 70
-3 70 -13 0 -9 -12 -13 -35 -12 -19 0 -35 -3 -35 -7 0 -4 41 -8 90 -8 59 0 90
-4 90 -11 0 -6 -7 -9 -15 -5 -8 3 -15 1 -15 -4 0 -6 23 -10 50 -10 43 0 50 -3
50 -20 0 -13 7 -20 20 -20 16 0 20 -7 20 -35 0 -19 4 -35 10 -35 5 0 7 7 4 15
-4 9 0 15 10 15 13 0 16 -13 17 -72 1 -40 3 -65 6 -55 11 40 23 12 23 -53 0
-67 -14 -95 -23 -47 -2 12 -5 -53 -6 -145 l-1 -168 35 0 c28 0 35 -4 35 -20 0
-13 7 -20 20 -20 16 0 20 -7 20 -35 0 -33 2 -35 35 -35 24 0 35 -5 35 -15 0
-8 7 -15 15 -15 8 0 15 -7 15 -15 0 -18 -16 -20 -23 -2 -3 7 -6 5 -6 -5 -1
-15 8 -18 54 -18 30 0 55 -4 55 -9 0 -5 -9 -7 -20 -4 -14 4 -20 0 -20 -11 0
-13 13 -16 75 -16 68 0 75 2 75 20 0 17 7 20 50 20 28 0 50 4 50 10 0 5 -7 7
-15 4 -9 -4 -15 0 -15 10 0 13 13 16 73 17 l72 1 -54 9 c-30 5 -57 12 -60 14
-2 3 62 5 144 5 151 0 175 -5 88 -20 -48 -8 -47 -8 25 -9 65 -1 72 -3 72 -21
0 -13 7 -20 20 -20 13 0 20 -7 20 -20 0 -11 7 -20 15 -20 8 0 15 -7 15 -15 0
-8 9 -15 20 -15 17 0 20 -7 20 -40 0 -29 4 -40 15 -40 12 0 15 -14 15 -70 0
-38 4 -70 9 -70 5 0 7 9 4 20 -4 14 0 20 11 20 12 0 16 -10 16 -40 0 -33 3
-40 20 -40 16 0 20 -7 20 -35 0 -24 5 -35 15 -35 8 0 15 -9 15 -20 0 -13 7
-20 20 -20 16 0 20 -7 20 -35 0 -28 4 -35 20 -35 18 0 20 -7 21 -57 1 -32 4
-48 6 -35 10 49 23 18 23 -53 0 -60 -3 -75 -15 -75 -10 0 -15 -11 -15 -35 0
-28 -4 -35 -20 -35 -11 0 -20 -7 -20 -15 0 -8 -9 -15 -20 -15 -13 0 -20 -7
-20 -20 0 -11 -7 -20 -15 -20 -8 0 -15 -9 -15 -20 0 -13 -7 -20 -20 -20 -11 0
-20 -7 -20 -15 0 -10 -11 -15 -35 -15 -28 0 -35 -4 -35 -20 0 -13 -7 -20 -20
-20 -11 0 -20 -7 -20 -15 0 -8 -7 -15 -15 -15 -13 0 -15 -33 -15 -240 0 -132
3 -240 8 -240 4 0 6 49 4 110 -2 73 0 110 7 110 7 0 11 -39 11 -110 l0 -110
35 0 c24 0 35 -5 35 -15 0 -12 13 -15 55 -15 42 0 55 -3 55 -15 0 -8 -4 -15
-10 -15 -5 0 -10 6 -10 13 0 8 -3 8 -9 -2 -5 -8 -16 -11 -25 -8 -9 4 -16 2
-16 -3 0 -6 33 -10 75 -10 60 0 75 -3 75 -15 0 -10 11 -15 35 -15 28 0 35 -4
35 -20 0 -11 7 -20 15 -20 12 0 15 -13 15 -55 0 -30 4 -55 9 -55 5 0 7 9 4 20
-4 14 0 20 11 20 14 0 16 -21 16 -180 0 -159 -2 -180 -16 -180 -10 0 -14 6
-10 15 3 8 1 15 -4 15 -6 0 -10 -39 -10 -90 0 -73 -3 -90 -15 -90 -12 0 -15
-13 -15 -55 0 -48 -2 -55 -20 -55 -18 0 -20 -7 -20 -55 0 -34 -4 -55 -11 -55
-6 0 -9 9 -6 20 3 11 1 20 -4 20 -5 0 -9 -25 -9 -55 0 -48 -2 -55 -20 -55 -13
0 -20 -7 -20 -20 0 -13 -7 -20 -20 -20 -11 0 -20 -7 -20 -15 0 -8 -7 -15 -15
-15 -8 0 -15 -9 -15 -20 0 -19 -7 -20 -235 -20 -202 0 -235 -2 -235 -15 0 -8
-9 -15 -20 -15 -13 0 -20 -7 -20 -20 0 -13 -7 -20 -20 -20 -13 0 -20 -7 -20
-20 0 -11 -7 -20 -15 -20 -8 0 -15 -7 -15 -15 0 -8 -9 -15 -20 -15 -17 0 -20
-7 -20 -40 0 -29 -4 -40 -15 -40 -10 0 -15 -11 -15 -35 0 -34 -1 -35 -40 -35
l-40 0 0 -55 c0 -48 2 -55 20 -55 18 0 20 -7 20 -55 0 -48 2 -55 20 -55 19 0
20 -7 20 -180 l0 -180 -40 0 c-22 0 -40 -4 -40 -9 0 -5 9 -7 20 -4 11 3 20 0
20 -6 0 -7 -21 -11 -55 -11 -30 0 -55 -4 -55 -9 0 -5 9 -7 20 -4 14 4 20 0 20
-11 0 -13 -11 -16 -55 -16 -42 0 -55 -4 -55 -15 0 -9 6 -12 15 -9 8 4 15 1 15
-5 0 -6 -16 -11 -35 -11 -24 0 -35 -5 -35 -15 0 -8 -7 -15 -15 -15 -8 0 -15
-9 -15 -20 0 -17 -7 -20 -40 -20 -29 0 -40 -4 -40 -15 0 -12 -13 -15 -55 -15
-30 0 -55 -4 -55 -9 0 -5 9 -7 20 -4 14 4 20 0 20 -11 0 -9 -8 -16 -20 -16
-13 0 -20 -7 -20 -20 0 -16 -7 -20 -35 -20 -24 0 -35 -5 -35 -15 0 -12 -14
-15 -70 -15 -38 0 -70 -4 -70 -10 0 -5 7 -7 15 -4 9 4 15 0 15 -10 0 -13 -12
-16 -70 -16 -58 0 -70 3 -70 16 0 10 6 14 15 10 8 -3 15 -1 15 4 0 6 -22 10
-50 10 -38 0 -50 4 -50 15 0 8 -9 15 -20 15 -17 0 -20 7 -20 40 0 33 -3 40
-20 40 -11 0 -20 7 -20 15 0 8 -7 15 -15 15 -10 0 -15 11 -15 35 0 27 -4 35
-17 34 -11 0 -13 -3 -5 -6 17 -7 15 -23 -3 -23 -10 0 -15 11 -15 35 0 24 -5
35 -15 35 -8 0 -15 9 -15 20 0 19 -6 20 -187 18 -104 -1 -153 -4 -110 -5 42
-2 77 -7 77 -12 0 -4 16 -7 35 -6 19 1 35 -2 35 -6 0 -5 -81 -9 -180 -9 l-180
0 0 -55 c0 -45 -3 -55 -17 -55 -13 0 -14 3 -5 12 16 16 15 28 -3 28 -12 0 -15
-13 -15 -55 0 -34 -4 -55 -11 -55 -6 0 -9 9 -6 20 3 11 1 20 -4 20 -5 0 -9
-34 -9 -75 l0 -75 -40 0 c-33 0 -40 -3 -40 -20 0 -11 -7 -20 -15 -20 -8 0 -15
-7 -15 -15 0 -8 -9 -15 -20 -15 -13 0 -20 -7 -20 -20 0 -19 -7 -20 -110 -20
-90 0 -110 3 -110 15 0 11 19 15 88 18 54 2 27 4 -70 5 -90 1 -158 6 -158 11
0 5 10 12 23 14 12 2 -13 5 -55 6 -62 1 -78 4 -78 16 0 18 26 20 33 3 3 -8 6
-6 6 5 1 15 -10 17 -89 17 -72 0 -90 3 -90 14 0 10 13 16 38 19 20 2 -5 4 -55
5 -75 2 -93 5 -93 17 0 11 -11 15 -40 15 -33 0 -40 3 -40 20 0 11 -7 20 -15
20 -11 0 -15 14 -16 58 -1 31 -4 47 -6 34 -2 -12 -11 -22 -19 -22 -12 0 -14
38 -14 235 0 202 -2 235 -15 235 -8 0 -15 9 -15 20 0 13 -7 20 -20 20 -11 0
-20 7 -20 15 0 10 -11 15 -35 15 -28 0 -35 4 -35 20 0 13 -7 20 -20 20 -13 0
-20 7 -20 20 0 13 -7 20 -20 20 -11 0 -20 7 -20 15 0 8 -7 15 -15 15 -8 0 -15
9 -15 20 0 19 -7 20 -110 20 -60 0 -110 -4 -110 -9 0 -5 9 -7 20 -4 14 4 20 0
20 -11 0 -13 -11 -16 -55 -16 -30 0 -55 -4 -55 -10 0 -5 7 -7 15 -4 8 4 15 1
15 -5 0 -7 -44 -11 -140 -11 -118 0 -140 2 -140 15 0 8 -9 15 -20 15 -13 0
-20 7 -20 20 0 13 -7 20 -20 20 -13 0 -20 7 -20 20 0 11 -7 20 -15 20 -10 0
-15 11 -15 35 0 26 -4 35 -17 35 -13 0 -14 -3 -5 -12 16 -16 15 -28 -3 -28
-10 0 -15 11 -15 35 0 28 -4 35 -20 35 -18 0 -20 7 -20 55 0 30 -4 55 -10 55
-5 0 -7 -7 -4 -15 4 -8 1 -15 -5 -15 -6 0 -11 16 -11 35 0 28 -4 35 -20 35
-13 0 -20 7 -20 20 0 11 -7 20 -15 20 -10 0 -15 11 -15 35 0 28 -4 35 -20 35
-18 0 -20 7 -20 72 0 39 -3 68 -7 65 -3 -4 -6 -20 -5 -37 0 -20 -4 -30 -14
-30 -12 0 -14 30 -14 180 0 165 1 180 18 179 10 0 12 -3 5 -6 -18 -7 -16 -23
2 -23 10 0 15 11 15 35 0 33 2 35 35 35 19 0 35 4 35 10 0 5 -7 7 -15 4 -9 -4
-15 0 -15 10 0 13 11 16 50 16 38 0 50 4 50 15 0 11 11 15 40 15 32 0 40 4 39
18 0 10 -3 12 -6 5 -7 -18 -33 -16 -33 2 0 10 11 15 35 15 l35 0 0 250 0 250
-70 0 c-58 0 -70 3 -70 16 0 10 6 14 15 10 8 -3 15 -1 15 4 0 6 -22 10 -50 10
-43 0 -50 3 -50 20 0 17 -7 20 -40 20 -23 0 -40 5 -40 11 0 6 9 9 20 6 11 -3
20 -1 20 4 0 5 -16 9 -35 9 -24 0 -35 5 -35 15 0 18 16 20 23 3 3 -8 6 -6 6 5
1 13 -7 17 -34 17 -28 0 -35 4 -35 20 0 13 -7 20 -20 20 -16 0 -20 7 -20 35 0
19 -4 35 -9 35 -5 0 -7 -9 -4 -20 3 -11 0 -20 -6 -20 -8 0 -11 45 -11 145 0
99 3 145 11 145 6 0 9 -7 5 -15 -3 -8 -1 -15 4 -15 6 0 10 32 10 70 0 57 3 70
16 70 11 0 14 -6 9 -20 -4 -11 -2 -20 4 -20 7 0 11 29 11 75 0 60 3 75 15 75
18 0 20 -26 3 -33 -8 -3 -6 -6 5 -6 15 -1 17 9 17 74 0 71 13 102 23 53 2 -13
5 19 6 70 1 78 4 92 17 92 14 0 14 -3 4 -15 -10 -12 -10 -15 4 -15 13 0 16 11
16 50 0 43 3 50 20 50 13 0 20 7 20 20 0 11 7 20 15 20 8 0 15 9 15 20 0 19 7
20 235 20 202 0 235 2 235 15 0 10 11 15 35 15 28 0 35 4 35 20 0 13 7 20 20
20 13 0 20 7 20 20 0 13 7 20 20 20 16 0 20 7 20 35 0 33 2 35 35 35 19 0 35
4 35 9 0 5 -9 7 -20 4 -11 -3 -20 0 -20 6 0 6 9 11 20 11 13 0 20 7 20 20 0
13 7 20 20 20 17 0 20 7 21 53 0 36 3 46 8 32 5 -11 6 -26 4 -32 -3 -7 0 -13
6 -13 7 0 11 21 11 55 0 30 -4 55 -9 55 -5 0 -7 -9 -4 -20 3 -11 0 -20 -6 -20
-7 0 -11 21 -11 55 0 30 -4 55 -9 55 -5 0 -7 -9 -4 -20 4 -14 0 -20 -11 -20
-13 0 -16 11 -16 55 0 48 -2 55 -20 55 -19 0 -20 7 -20 145 0 138 1 145 20
145 13 0 20 7 20 20 0 13 7 20 20 20 11 0 20 7 20 15 0 10 11 15 35 15 28 0
35 4 35 20 0 11 7 20 15 20 10 0 15 11 15 35 l0 35 75 0 c61 0 75 3 75 15 0
13 -4 14 -20 5 -16 -9 -20 -8 -20 5 0 11 11 15 40 15 29 0 40 4 40 15 0 10 11
15 35 15 26 0 35 4 35 17 0 13 -3 14 -12 5 -16 -16 -28 -15 -28 3 0 10 11 15
35 15 28 0 35 4 35 20 0 18 7 20 55 20 30 0 55 4 55 10 0 5 -7 7 -15 4 -8 -4
-15 -1 -15 5 0 8 55 11 180 11 126 0 180 -3 180 -11 0 -6 -9 -9 -20 -6 -11 3
-20 1 -20 -4 0 -5 18 -9 40 -9 l40 0 0 -40 c0 -29 4 -40 15 -40 8 0 15 -7 15
-15 0 -8 9 -15 20 -15 17 0 20 -7 20 -40 0 -29 4 -40 15 -40 10 0 15 -11 15
-35 0 -28 4 -35 20 -35 11 0 20 -7 20 -15 0 -13 31 -15 217 -15 119 0 214 3
211 6 -4 3 -59 8 -124 10 -65 3 -121 7 -123 10 -2 2 62 4 142 4 l147 0 0 75
c0 62 3 75 16 75 13 0 15 -8 12 -40 -2 -22 0 -40 4 -40 5 0 8 43 8 95 0 78 3
95 15 95 8 0 15 7 15 15 0 8 9 15 20 15 13 0 20 7 20 20 0 13 7 20 20 20 11 0
20 7 20 15 0 10 11 15 35 15 19 0 35 4 35 9 0 5 -9 7 -20 4 -14 -4 -20 0 -20
11 0 13 20 16 138 18 75 2 144 2 152 1 8 -1 42 -7 74 -12z m-1264 -68 c0 -10
-167 -10 -176 0 -4 4 34 7 84 7 51 0 92 -3 92 -7z m140 -119 c0 -8 -4 -12 -10
-9 -5 3 -10 10 -10 16 0 5 5 9 10 9 6 0 10 -7 10 -16z m-810 -138 c0 -3 -4 -8
-10 -11 -5 -3 -10 -1 -10 4 0 6 5 11 10 11 6 0 10 -2 10 -4z m-30 -30 c0 -2
-7 -9 -15 -16 -12 -10 -15 -10 -15 4 0 9 7 16 15 16 8 0 15 -2 15 -4z m-133
-88 c-3 -8 -6 -5 -6 6 -1 11 2 17 5 13 3 -3 4 -12 1 -19z m-18 -200 c1 -21 -3
-38 -9 -38 -6 0 -10 25 -9 58 0 41 3 51 9 37 5 -11 9 -37 9 -57z m2801 -194
c0 -8 -4 -12 -10 -9 -5 3 -10 10 -10 16 0 5 5 9 10 9 6 0 10 -7 10 -16z
m-2835 -324 c-3 -5 -10 -10 -16 -10 -5 0 -9 5 -9 10 0 6 7 10 16 10 8 0 12 -4
9 -10z m-37 -32 c-6 -18 -28 -21 -28 -4 0 9 7 16 16 16 9 0 14 -5 12 -12z
m-308 -77 c0 -12 -128 -13 -165 -2 -23 7 -7 9 68 10 53 1 97 -3 97 -8z m67 3
c-3 -3 -12 -4 -19 -1 -8 3 -5 6 6 6 11 1 17 -2 13 -5z m4053 -39 c0 -8 -2 -15
-4 -15 -2 0 -6 7 -10 15 -3 8 -1 15 4 15 6 0 10 -7 10 -15z m40 -485 c0 -5 -8
-10 -17 -10 -15 0 -16 2 -3 10 19 12 20 12 20 0z m-150 -110 c0 -5 -5 -10 -11
-10 -5 0 -7 5 -4 10 3 6 8 10 11 10 2 0 4 -4 4 -10z m-30 -30 c0 -5 -8 -10
-17 -10 -15 0 -16 2 -3 10 19 12 20 12 20 0z m-4500 -114 c0 -38 -12 -86 -21
-86 -5 0 -9 25 -9 55 0 42 3 55 15 55 9 0 15 -9 15 -24z m210 -321 c10 -12 10
-15 -4 -15 -9 0 -16 7 -16 15 0 8 2 15 4 15 2 0 9 -7 16 -15z m220 -75 c0 -5
-4 -10 -10 -10 -5 0 -10 5 -10 10 0 6 5 10 10 10 6 0 10 -4 10 -10z m-110
-524 c0 -3 -4 -8 -10 -11 -5 -3 -10 -1 -10 4 0 6 5 11 10 11 6 0 10 -2 10 -4z
m-193 -308 c-3 -8 -6 -5 -6 6 -1 11 2 17 5 13 3 -3 4 -12 1 -19z m78 -258 c3
-5 1 -10 -4 -10 -6 0 -11 5 -11 10 0 6 2 10 4 10 3 0 8 -4 11 -10z m4325 -32
c0 -5 -22 -8 -50 -8 -28 0 -50 5 -50 11 0 6 20 9 50 7 27 -2 50 -6 50 -10z
m-113 -4 c-3 -3 -12 -4 -19 -1 -8 3 -5 6 6 6 11 1 17 -2 13 -5z m-497 -284 c0
-5 -7 -10 -16 -10 -8 0 -12 5 -9 10 3 6 10 10 16 10 5 0 9 -4 9 -10z m0 -66
c0 -17 -22 -14 -28 4 -2 7 3 12 12 12 9 0 16 -7 16 -16z m-3273 -90 c-3 -3
-12 -4 -19 -1 -8 3 -5 6 6 6 11 1 17 -2 13 -5z m523 -90 c0 -10 5 -14 16 -10
8 3 12 2 9 -4 -3 -6 5 -10 19 -10 26 0 26 0 24 -82 l-2 -83 -5 75 -6 75 -60
15 c-33 9 -69 21 -80 28 -17 10 -12 11 33 12 41 0 52 -3 52 -16z m2820 -129
c0 -43 -4 -75 -10 -75 -6 0 -10 32 -10 75 0 43 4 75 10 75 6 0 10 -32 10 -75z
m-1090 -245 c0 -5 -7 -10 -15 -10 -8 0 -15 5 -15 10 0 6 7 10 15 10 8 0 15 -4
15 -10z m-470 -35 c0 -8 -4 -15 -10 -15 -5 0 -10 7 -10 15 0 8 5 15 10 15 6 0
10 -7 10 -15z m500 -6 c0 -5 -4 -9 -10 -9 -5 0 -10 7 -10 16 0 8 5 12 10 9 6
-3 10 -10 10 -16z m-500 -29 c0 -5 -5 -10 -11 -10 -5 0 -7 5 -4 10 3 6 8 10
11 10 2 0 4 -4 4 -10z m-1105 -70 c3 -5 1 -10 -4 -10 -6 0 -11 5 -11 10 0 6 2
10 4 10 3 0 8 -4 11 -10z m1713 -38 c2 -7 -3 -12 -12 -12 -9 0 -16 7 -16 16 0
17 22 14 28 -4z m27 -72 c3 -5 1 -10 -4 -10 -6 0 -11 5 -11 10 0 6 2 10 4 10
3 0 8 -4 11 -10z m275 -40 c0 -5 -5 -10 -11 -10 -5 0 -7 5 -4 10 3 6 8 10 11
10 2 0 4 -4 4 -10z m330 -17 c0 -9 -62 -53 -73 -53 -4 0 -7 5 -7 10 0 6 9 10
20 10 13 0 20 7 20 20 0 13 7 20 20 20 11 0 20 -3 20 -7z m-1863 -59 c-3 -3
-12 -4 -19 -1 -8 3 -5 6 6 6 11 1 17 -2 13 -5z"/>
<path d="M3148 4923 c7 -3 16 -2 19 1 4 3 -2 6 -13 5 -11 0 -14 -3 -6 -6z"/>
<path d="M3258 4893 c7 -3 16 -2 19 1 4 3 -2 6 -13 5 -11 0 -14 -3 -6 -6z"/>
<path d="M2930 4880 c0 -11 14 -11 50 0 22 7 21 8 -12 9 -21 1 -38 -3 -38 -9z"/>
<path d="M2820 4835 c0 -8 -9 -15 -20 -15 -17 0 -20 -7 -20 -40 0 -29 -4 -40
-15 -40 -10 0 -15 -11 -15 -35 0 -28 -4 -35 -20 -35 -18 0 -20 -7 -20 -55 0
-48 -2 -55 -20 -55 -18 0 -20 -7 -20 -55 0 -34 -4 -55 -11 -55 -6 0 -9 9 -6
20 3 11 1 20 -4 20 -5 0 -9 -16 -9 -35 l0 -35 -237 -1 c-131 -1 -230 -3 -220
-6 9 -2 17 -11 17 -19 0 -11 -16 -14 -70 -14 l-70 0 0 55 c0 41 -4 55 -14 55
-9 0 -12 -7 -9 -20 3 -11 0 -20 -6 -20 -7 0 -11 21 -11 55 l0 55 -35 0 c-33 0
-35 2 -35 35 0 28 -4 35 -20 35 -17 0 -20 7 -20 40 0 29 -4 40 -15 40 -8 0
-15 7 -15 15 0 12 -13 15 -55 15 -42 0 -55 3 -55 15 0 18 16 20 23 3 3 -8 6
-6 6 5 1 14 -8 17 -49 17 -43 0 -50 -3 -50 -20 0 -17 -7 -20 -40 -20 -22 0
-40 -4 -40 -9 0 -5 9 -7 20 -4 11 3 20 0 20 -6 0 -6 -16 -11 -35 -11 -28 0
-35 -4 -35 -20 0 -17 -7 -20 -40 -20 -33 0 -40 -3 -40 -20 0 -11 -7 -20 -15
-20 -8 0 -15 -7 -15 -15 0 -10 -11 -15 -35 -15 -19 0 -35 -4 -35 -10 0 -5 7
-7 15 -4 9 4 15 0 15 -10 0 -13 -13 -16 -72 -17 -40 -1 -65 -3 -55 -6 36 -10
15 -23 -38 -23 -48 0 -55 -2 -55 -20 0 -27 -18 -25 -23 3 -2 12 -5 -13 -6 -55
-1 -58 -4 -78 -14 -78 -8 0 -14 7 -14 15 0 8 5 15 11 15 6 0 4 5 -4 10 -13 9
-13 11 0 20 13 8 12 10 -2 10 -16 0 -18 -11 -18 -90 0 -49 4 -90 9 -90 5 0 7
9 4 20 -4 14 0 20 11 20 14 0 16 -14 16 -92 0 -50 3 -88 7 -85 3 4 6 20 5 37
0 16 4 30 9 30 5 0 9 -40 9 -90 0 -79 2 -90 18 -89 10 0 12 3 5 6 -18 7 -16
33 2 33 12 0 15 -15 15 -75 0 -68 -2 -75 -20 -75 -16 0 -20 -7 -20 -35 0 -24
-5 -35 -15 -35 -10 0 -15 -11 -15 -35 0 -28 -4 -35 -20 -35 -13 0 -20 -7 -20
-20 0 -11 -7 -20 -15 -20 -8 0 -15 -9 -15 -20 0 -13 -7 -20 -20 -20 -11 0 -20
-7 -20 -15 0 -8 -9 -15 -20 -15 -13 0 -20 -7 -20 -20 0 -11 -7 -20 -15 -20 -8
0 -15 -9 -15 -20 0 -13 -7 -20 -20 -20 -16 0 -20 -7 -20 -35 l0 -35 -270 0
c-233 0 -270 -2 -270 -15 0 -8 -9 -15 -20 -15 -18 0 -20 -7 -20 -55 0 -42 -3
-55 -15 -55 -12 0 -15 -19 -15 -110 0 -89 -3 -110 -14 -110 -10 0 -16 13 -19
38 -2 20 -4 -5 -5 -55 -2 -78 -5 -93 -18 -93 -11 0 -15 6 -11 20 3 11 1 20 -4
20 -5 0 -9 -58 -9 -130 0 -123 1 -130 20 -130 16 0 20 -7 20 -35 0 -28 4 -35
20 -35 11 0 20 -7 20 -15 0 -11 12 -15 50 -15 28 0 50 -4 50 -9 0 -11 -48 -24
-60 -16 -6 4 -10 1 -10 -4 0 -7 29 -11 75 -11 58 0 75 -3 75 -14 0 -9 -12 -14
-36 -14 -19 0 -38 -3 -41 -6 -4 -3 28 -6 70 -6 62 0 77 -3 77 -15 0 -8 9 -15
20 -15 19 0 20 -7 21 -147 2 -139 2 -143 9 -60 4 48 10 90 13 94 4 3 7 -94 7
-217 0 -123 2 -221 5 -219 2 3 5 29 6 57 2 36 6 52 16 52 10 0 13 -21 13 -90
0 -83 -1 -90 -20 -90 -11 0 -20 -7 -20 -15 0 -10 -11 -15 -35 -15 -28 0 -35
-4 -35 -20 0 -18 -7 -20 -55 -20 -48 0 -55 -2 -55 -20 0 -13 -7 -20 -20 -20
-11 0 -20 -5 -20 -11 0 -6 9 -8 20 -4 11 4 20 2 20 -4 0 -6 -16 -11 -35 -11
-34 0 -35 -1 -35 -40 0 -29 -4 -40 -15 -40 -18 0 -20 26 -2 33 7 3 5 6 -5 6
-16 1 -18 -11 -18 -109 0 -103 1 -110 20 -110 18 0 20 -7 20 -55 0 -30 4 -55
9 -55 5 0 7 9 4 20 -3 11 0 20 6 20 6 0 11 -16 11 -35 0 -28 4 -35 20 -35 16
0 20 -7 20 -35 0 -28 4 -35 20 -35 13 0 20 -7 20 -20 0 -11 7 -20 15 -20 10 0
15 -11 15 -35 0 -28 4 -35 20 -35 18 0 20 -7 20 -55 0 -30 4 -55 10 -55 5 0 7
7 4 15 -4 9 0 15 10 15 13 0 16 -11 16 -50 l0 -50 160 0 c88 0 160 4 160 8 0
4 -16 7 -35 7 -19 -1 -35 2 -35 7 0 4 32 8 70 8 39 0 70 4 70 10 0 5 -7 7 -15
4 -9 -4 -15 0 -15 10 0 14 15 16 105 16 98 0 105 -1 105 -20 0 -17 7 -20 40
-20 22 0 40 -4 40 -9 0 -5 -9 -7 -20 -4 -11 3 -20 0 -20 -6 0 -6 16 -11 35
-11 28 0 35 -4 35 -20 0 -17 7 -20 40 -20 29 0 40 -4 40 -15 0 -18 -12 -19
-28 -3 -9 9 -12 8 -12 -5 0 -10 8 -17 20 -17 11 0 20 -7 20 -15 0 -10 11 -15
35 -15 34 0 35 -1 35 -40 0 -29 4 -40 15 -40 8 0 15 -7 15 -15 0 -11 11 -15
40 -15 l40 0 0 -110 c0 -88 -3 -110 -14 -110 -10 0 -14 10 -12 35 2 19 -1 35
-5 35 -5 0 -9 -72 -9 -160 0 -146 2 -160 18 -159 10 0 12 3 5 6 -18 7 -16 23
2 23 8 0 15 -7 15 -15 0 -8 7 -15 15 -15 8 0 15 -9 15 -20 0 -13 7 -20 20 -20
11 0 20 -5 20 -11 0 -6 -9 -9 -20 -6 -11 3 -20 1 -20 -4 0 -5 34 -9 75 -9 68
0 75 -2 75 -20 0 -18 7 -20 55 -20 44 0 55 -3 55 -16 0 -10 -6 -14 -14 -11 -8
3 -27 2 -43 -3 -19 -6 7 -9 86 -9 116 -1 142 -9 55 -17 -96 -9 -53 -14 124
-14 151 0 182 2 182 14 0 8 10 16 23 18 15 2 21 9 19 21 -2 11 3 17 15 17 10
0 14 -4 8 -8 -16 -12 -16 -32 0 -32 12 0 15 15 15 75 0 48 4 75 11 75 6 0 9
-7 5 -15 -3 -8 -1 -25 4 -37 6 -17 9 -4 9 50 1 65 3 72 21 72 16 0 20 7 20 35
0 24 5 35 15 35 18 0 20 -16 3 -23 -8 -3 -6 -6 5 -6 13 -1 17 7 17 34 l0 35
148 1 c104 1 133 4 97 9 -27 4 -53 5 -57 3 -5 -2 -8 0 -8 6 0 5 -9 8 -20 6
-11 -2 -20 0 -20 6 0 5 102 9 255 9 l255 0 0 -40 c0 -29 4 -40 15 -40 8 0 15
-7 15 -15 0 -8 9 -15 20 -15 13 0 20 -7 20 -20 0 -13 7 -20 20 -20 16 0 20 -7
20 -35 0 -24 5 -35 15 -35 10 0 15 -11 15 -35 l0 -35 130 0 c72 0 130 4 130 9
0 5 -9 7 -20 4 -11 -3 -20 0 -20 6 0 6 16 11 35 11 28 0 35 4 35 20 0 13 7 20
20 20 11 0 20 7 20 15 0 10 11 15 35 15 28 0 35 4 35 20 0 18 7 20 55 20 30 0
55 4 55 9 0 5 -9 7 -20 4 -14 -4 -20 0 -20 11 0 13 11 16 55 16 30 0 55 4 55
10 0 5 -7 7 -15 4 -8 -4 -15 -1 -15 5 0 6 16 11 35 11 28 0 35 4 35 20 0 11 7
20 15 20 8 0 15 9 15 20 0 17 7 20 40 20 l40 0 0 105 c0 98 -1 105 -20 105
-18 0 -20 7 -20 55 0 45 -3 55 -17 55 -13 0 -14 -3 -5 -12 16 -16 15 -28 -3
-28 -12 0 -15 13 -15 55 0 42 -3 55 -15 55 -12 0 -15 15 -15 75 l0 75 35 0
c33 0 35 2 35 35 0 24 5 35 15 35 18 0 20 -26 3 -33 -8 -3 -6 -6 5 -6 13 -1
17 7 17 39 0 29 4 40 15 40 8 0 15 7 15 15 0 8 9 15 20 15 17 0 20 7 20 40 0
33 3 40 20 40 11 0 20 7 20 15 0 8 5 15 11 15 6 0 9 -7 5 -15 -3 -8 -1 -15 4
-15 6 0 10 16 10 35 0 28 4 35 20 35 11 0 20 7 20 15 0 8 7 15 15 15 11 0 15
11 15 40 l0 40 165 0 c161 0 217 -12 118 -25 -82 -11 -72 -13 60 -14 121 -1
127 0 127 19 0 13 7 20 20 20 11 0 20 7 20 15 0 8 9 15 20 15 18 0 20 7 20 78
0 49 4 72 9 63 5 -8 8 -22 6 -32 -2 -10 0 -21 6 -24 5 -4 9 15 9 44 0 44 3 51
20 51 18 0 20 7 20 75 0 68 2 75 20 75 16 0 20 7 20 35 0 24 5 35 15 35 12 0
15 15 15 75 0 62 3 75 16 75 11 0 15 -6 11 -20 -3 -11 -1 -20 4 -20 5 0 9 32
9 70 0 39 -4 70 -10 70 -5 0 -7 -7 -4 -15 4 -9 0 -15 -10 -15 -12 0 -16 10
-16 35 0 24 -5 35 -15 35 -8 0 -15 9 -15 20 0 13 -7 20 -20 20 -11 0 -20 7
-20 15 0 12 -13 15 -55 15 -41 0 -55 4 -55 14 0 10 13 16 38 19 27 3 22 4 -20
5 -51 2 -58 5 -58 22 0 18 -7 20 -72 21 -58 1 -67 2 -44 9 16 5 33 7 38 4 4
-3 8 0 8 5 0 7 -23 11 -55 11 -48 0 -55 2 -55 20 0 11 -5 20 -11 20 -6 0 -9
-9 -6 -20 3 -11 1 -20 -4 -20 -5 0 -10 89 -11 203 -1 111 -3 185 -5 165 -3
-25 -9 -38 -19 -38 -11 0 -14 25 -14 145 l0 145 35 0 c24 0 35 5 35 15 0 11
11 15 40 15 33 0 40 3 40 20 0 16 7 20 35 20 23 0 35 5 35 14 0 9 -7 12 -20 9
-11 -3 -20 0 -20 6 0 6 16 11 35 11 24 0 35 5 35 15 0 8 9 15 20 15 16 0 20 7
20 35 0 28 4 35 20 35 18 0 20 7 20 75 0 68 -2 75 -20 75 -16 0 -20 7 -20 35
0 28 -4 35 -20 35 -18 0 -20 7 -20 75 0 41 -4 75 -9 75 -5 0 -7 -9 -4 -20 3
-11 0 -20 -6 -20 -6 0 -11 16 -11 35 0 28 -4 35 -20 35 -13 0 -20 7 -20 20 0
11 -7 20 -15 20 -11 0 -15 14 -16 58 -1 31 -4 47 -6 35 -2 -13 -11 -23 -19
-23 -10 0 -14 14 -14 55 0 48 -2 55 -20 55 -13 0 -20 7 -20 20 0 16 -7 20 -35
20 -19 0 -35 4 -35 9 0 5 9 7 20 4 11 -3 20 0 20 6 0 7 -30 11 -92 10 -51 -1
-85 -3 -75 -6 9 -2 17 -9 17 -14 0 -5 -40 -9 -90 -9 -83 0 -90 -1 -90 -20 0
-16 -7 -20 -35 -20 -28 0 -35 -4 -35 -20 0 -18 -7 -20 -57 -21 -32 -1 -48 -4
-35 -6 37 -7 25 -23 -18 -23 -33 0 -40 -3 -40 -20 0 -18 -7 -20 -70 -20 -63 0
-70 2 -70 20 0 25 27 27 33 3 3 -10 5 6 6 35 1 39 5 52 16 52 8 0 15 9 15 20
0 11 -7 20 -15 20 -8 0 -15 7 -15 15 0 8 -9 15 -20 15 -13 0 -20 7 -20 20 0
13 -7 20 -20 20 -13 0 -20 7 -20 20 0 11 -7 20 -15 20 -8 0 -15 7 -15 15 0 11
-11 15 -40 15 -33 0 -40 3 -40 20 0 11 -7 20 -15 20 -8 0 -15 7 -15 15 0 8 -9
15 -20 15 -19 0 -20 6 -18 133 1 72 3 115 5 95 2 -21 8 -38 13 -38 5 0 11 -10
13 -22 2 -13 5 59 6 160 l1 182 -35 0 c-24 0 -35 5 -35 15 0 8 5 15 11 15 5 0
7 -4 4 -10 -3 -5 -1 -10 4 -10 6 0 11 7 11 15 0 8 -7 15 -15 15 -8 0 -15 7
-15 15 0 11 -11 15 -40 15 -44 0 -58 25 -17 33 12 2 -13 5 -55 6 -71 1 -78 3
-78 21 0 19 -7 20 -105 20 -67 0 -105 4 -105 11 0 5 4 8 8 5 5 -3 22 -1 38 4
19 5 -33 9 -153 9 -156 1 -183 -1 -183 -14z m-1094 -92 c-10 -10 -19 5 -10 18
6 11 8 11 12 0 2 -7 1 -15 -2 -18z m-176 -103 c0 -5 -5 -10 -11 -10 -5 0 -7 5
-4 10 3 6 8 10 11 10 2 0 4 -4 4 -10z m380 -30 c0 -5 -4 -10 -10 -10 -5 0 -10
5 -10 10 0 6 5 10 10 10 6 0 10 -4 10 -10z m-560 -70 c0 -5 -8 -10 -17 -10
-15 0 -16 2 -3 10 19 12 20 12 20 0z m640 0 c0 -5 -4 -10 -10 -10 -5 0 -10 5
-10 10 0 6 5 10 10 10 6 0 10 -4 10 -10z m700 0 c0 -5 -8 -10 -17 -10 -15 0
-16 2 -3 10 19 12 20 12 20 0z m-470 -156 c0 -2 -7 -4 -15 -4 -8 0 -15 4 -15
10 0 5 7 7 15 4 8 -4 15 -8 15 -10z m485 -265 c-16 -5 -36 -7 -42 -4 -7 2 -13
0 -13 -6 0 -6 -44 -7 -122 -4 -161 8 -168 9 -168 18 0 4 84 7 188 6 129 0 178
-4 157 -10z m235 -37 c0 -5 -14 -9 -31 -10 -67 -2 -38 -12 34 -12 60 0 77 -3
77 -14 0 -8 -10 -17 -22 -19 -13 -2 19 -5 70 -6 60 -1 92 -5 92 -12 0 -6 -9
-9 -20 -6 -11 3 -20 1 -20 -5 0 -6 -7 -8 -15 -4 -8 3 -15 1 -15 -4 0 -6 39
-10 90 -10 59 0 90 -4 90 -11 0 -6 -7 -9 -15 -5 -8 3 -25 1 -37 -4 -18 -7 -12
-9 30 -9 45 -1 52 -4 52 -21 0 -17 7 -20 40 -20 33 0 40 -3 40 -20 0 -11 7
-20 15 -20 8 0 15 -7 15 -15 0 -11 11 -15 40 -15 33 0 40 -3 40 -20 0 -11 7
-20 15 -20 8 0 15 -7 15 -15 0 -8 9 -15 20 -15 13 0 20 -7 20 -20 0 -16 7 -20
35 -20 19 0 35 -5 35 -11 0 -6 -7 -9 -15 -6 -8 4 -17 2 -21 -4 -4 -6 -11 -6
-20 2 -11 9 -14 8 -14 -5 0 -13 11 -16 55 -16 34 0 55 -4 55 -11 0 -6 -9 -9
-20 -6 -11 3 -20 1 -20 -4 0 -5 16 -9 35 -9 28 0 35 -4 35 -20 0 -13 7 -20 20
-20 16 0 20 -7 20 -35 0 -19 4 -35 10 -35 5 0 7 7 4 15 -4 9 0 15 10 15 12 0
16 -10 16 -35 0 -24 5 -35 15 -35 10 0 15 -11 15 -35 0 -28 4 -35 20 -35 13 0
20 -7 20 -20 0 -11 7 -20 15 -20 10 0 15 -11 15 -35 0 -26 4 -35 17 -35 13 0
14 3 5 12 -16 16 -15 28 3 28 12 0 15 -13 15 -55 0 -30 4 -55 10 -55 5 0 7 7
4 15 -4 9 0 15 10 15 12 0 16 -10 16 -35 0 -24 5 -35 15 -35 12 0 15 -13 15
-55 0 -46 3 -55 18 -54 10 0 12 3 5 6 -18 7 -16 33 2 33 11 0 15 -14 16 -57 1
-32 4 -48 6 -35 2 12 11 22 19 22 11 0 14 -25 15 -132 1 -99 4 -120 9 -83 4
28 5 53 3 58 -2 4 1 7 6 7 8 0 11 -124 11 -395 0 -242 -4 -395 -9 -395 -6 0
-12 24 -14 53 -2 28 -4 -5 -5 -75 -2 -121 -3 -128 -22 -128 -16 0 -20 -7 -20
-35 0 -28 -4 -35 -20 -35 -16 0 -20 -7 -20 -35 0 -24 -5 -35 -15 -35 -11 0
-15 -11 -15 -40 0 -33 -3 -40 -20 -40 -16 0 -20 -7 -20 -35 0 -28 -4 -35 -20
-35 -11 0 -20 -7 -20 -15 0 -8 -7 -15 -15 -15 -8 0 -15 -9 -15 -20 0 -13 -7
-20 -20 -20 -16 0 -20 -7 -20 -35 0 -36 -15 -48 -23 -17 -3 9 -5 -9 -6 -40 -1
-51 -3 -58 -21 -58 -11 0 -20 -7 -20 -15 0 -8 -9 -15 -20 -15 -13 0 -20 -7
-20 -20 0 -11 -7 -20 -15 -20 -8 0 -15 -7 -15 -15 0 -11 -11 -15 -40 -15 -32
0 -40 -4 -39 -17 0 -11 3 -13 6 -5 7 17 33 15 33 -3 0 -10 -11 -15 -35 -15
-28 0 -35 -4 -35 -20 0 -13 -7 -20 -20 -20 -11 0 -20 -7 -20 -15 0 -8 -7 -15
-15 -15 -8 0 -15 -9 -15 -20 0 -13 -7 -20 -20 -20 -13 0 -20 -7 -20 -20 0 -16
-7 -20 -35 -20 -24 0 -35 -5 -35 -15 0 -11 -11 -15 -40 -15 -33 0 -40 -3 -40
-20 0 -16 -7 -20 -35 -20 -24 0 -35 -5 -35 -15 0 -10 -11 -15 -35 -15 -26 0
-35 -4 -35 -17 0 -13 3 -14 12 -5 16 16 28 15 28 -3 0 -12 -19 -15 -110 -15
-97 0 -110 -2 -110 -17 0 -13 3 -14 12 -5 16 16 28 15 28 -3 0 -12 -16 -15
-77 -16 -43 -1 -68 -4 -55 -6 12 -2 22 -9 22 -14 0 -5 -139 -9 -345 -9 -205 0
-345 4 -345 9 0 5 8 12 18 14 9 3 -25 5 -75 6 -79 1 -93 4 -93 17 0 11 6 15
20 11 11 -3 20 -1 20 4 0 5 -40 9 -90 9 -76 0 -90 2 -90 16 0 11 6 15 20 11
11 -3 20 -1 20 4 0 5 -34 9 -75 9 -60 0 -75 3 -75 15 0 10 -11 15 -35 15 -26
0 -35 4 -35 16 0 14 3 14 15 4 12 -10 15 -10 15 4 0 9 -7 16 -15 16 -8 0 -15
7 -15 15 0 10 -11 15 -35 15 -28 0 -35 4 -35 20 0 13 -7 20 -20 20 -13 0 -20
7 -20 20 0 16 -7 20 -35 20 -19 0 -35 5 -35 11 0 6 7 9 15 5 8 -3 15 -1 15 4
0 6 -16 10 -35 10 -28 0 -35 4 -35 20 0 16 -7 20 -35 20 -26 0 -35 4 -35 16 0
14 3 14 15 4 12 -10 15 -10 15 4 0 12 -9 16 -35 16 -33 0 -35 2 -35 35 0 24
-5 35 -15 35 -8 0 -15 7 -15 15 0 8 -9 15 -20 15 -13 0 -20 7 -20 20 0 13 -7
20 -20 20 -13 0 -20 7 -20 20 0 11 -7 20 -15 20 -10 0 -15 11 -15 35 0 28 -4
35 -20 35 -13 0 -20 7 -20 20 0 13 -7 20 -20 20 -11 0 -20 7 -20 15 0 8 -7 15
-15 15 -12 0 -15 15 -15 77 0 42 -3 74 -6 70 -3 -3 -6 -22 -6 -41 0 -24 -5
-36 -14 -36 -11 0 -14 17 -14 75 0 60 -3 75 -15 75 -10 0 -15 11 -15 35 0 26
-4 35 -16 35 -14 0 -14 -3 -4 -15 10 -12 10 -15 -4 -15 -13 0 -16 12 -16 70 0
63 -2 70 -20 70 -18 0 -20 7 -20 70 0 39 -4 70 -10 70 -5 0 -7 -7 -4 -15 4 -8
1 -15 -5 -15 -8 0 -11 94 -11 325 0 194 4 325 9 325 5 0 12 -10 14 -22 2 -13
5 21 6 75 1 82 3 97 17 97 11 0 15 -6 11 -20 -3 -11 -1 -20 4 -20 5 0 9 32 9
70 0 58 3 70 16 70 14 0 14 -3 4 -15 -10 -12 -10 -15 4 -15 12 0 16 9 16 35 0
24 5 35 15 35 12 0 15 14 15 70 0 52 3 70 13 70 9 0 14 -12 15 -31 2 -67 12
-38 12 34 0 62 3 77 15 77 8 0 15 7 15 15 0 8 9 15 20 15 13 0 20 7 20 20 0
13 7 20 20 20 16 0 20 7 20 35 0 24 5 35 15 35 8 0 15 9 15 20 0 11 7 20 15
20 18 0 20 -26 3 -33 -8 -3 -6 -6 5 -6 13 -1 17 7 17 34 0 28 4 35 20 35 13 0
20 7 20 20 0 11 7 20 15 20 8 0 15 9 15 20 0 13 7 20 20 20 11 0 20 7 20 15 0
8 7 15 15 15 8 0 15 9 15 20 0 13 7 20 20 20 13 0 20 7 20 20 0 16 7 20 35 20
24 0 35 5 35 15 0 8 9 15 20 15 13 0 20 7 20 20 0 13 7 20 20 20 11 0 20 7 20
15 0 10 11 15 35 15 27 0 35 4 34 18 0 10 -3 12 -6 5 -7 -18 -33 -16 -33 2 0
8 9 15 20 15 13 0 20 7 20 20 0 18 7 20 55 20 30 0 55 4 55 9 0 5 -9 7 -20 4
-11 -3 -20 0 -20 6 0 7 30 11 90 11 50 0 90 4 90 8 0 4 -15 7 -32 7 -18 0 -41
3 -50 7 -10 5 -18 3 -21 -5 -3 -7 -6 -5 -6 6 -1 15 12 17 131 17 72 0 129 3
125 6 -3 3 -29 6 -56 7 -36 0 -51 4 -51 14 0 10 22 13 93 14 90 1 91 1 52 14
-35 11 14 13 358 14 218 1 397 -3 397 -7z m110 -38 c0 -8 -4 -12 -10 -9 -5 3
-10 10 -10 16 0 5 5 9 10 9 6 0 10 -7 10 -16z m-1770 -79 c0 -8 -7 -15 -15
-15 -8 0 -15 7 -15 15 0 8 7 15 15 15 8 0 15 -7 15 -15z m2860 -45 c0 -5 -8
-10 -17 -10 -15 0 -16 2 -3 10 19 12 20 12 20 0z m344 -35 c3 -9 0 -15 -9 -15
-8 0 -15 7 -15 15 0 8 4 15 9 15 5 0 11 -7 15 -15z m-1034 -25 c0 -5 -2 -10
-4 -10 -3 0 -8 5 -11 10 -3 6 -1 10 4 10 6 0 11 -4 11 -10z m-1820 -29 c0 -5
-7 -11 -15 -15 -9 -3 -15 0 -15 9 0 8 7 15 15 15 8 0 15 -4 15 -9z m-40 -41
c0 -5 -4 -10 -10 -10 -5 0 -10 5 -10 10 0 6 5 10 10 10 6 0 10 -4 10 -10z
m2217 -16 c-3 -3 -12 -4 -19 -1 -8 3 -5 6 6 6 11 1 17 -2 13 -5z m-2367 -88
c0 -3 -4 -8 -10 -11 -5 -3 -10 -1 -10 4 0 6 5 11 10 11 6 0 10 -2 10 -4z m-36
-41 c-4 -8 -8 -15 -10 -15 -2 0 -4 7 -4 15 0 8 4 15 10 15 5 0 7 -7 4 -15z
m2403 -117 c-3 -8 -6 -5 -6 6 -1 11 2 17 5 13 3 -3 4 -12 1 -19z m-3440 -190
c-3 -8 -6 -5 -6 6 -1 11 2 17 5 13 3 -3 4 -12 1 -19z m4293 -82 c0 -3 -4 -8
-10 -11 -5 -3 -10 -1 -10 4 0 6 5 11 10 11 6 0 10 -2 10 -4z m-140 -110 c0 -3
-4 -8 -10 -11 -5 -3 -10 -1 -10 4 0 6 5 11 10 11 6 0 10 -2 10 -4z m-4183 -28
c-3 -8 -6 -5 -6 6 -1 11 2 17 5 13 3 -3 4 -12 1 -19z m4030 -140 c-3 -7 -5 -2
-5 12 0 14 2 19 5 13 2 -7 2 -19 0 -25z m30 -220 c-3 -8 -6 -5 -6 6 -1 11 2
17 5 13 3 -3 4 -12 1 -19z m-3847 -88 c0 -5 -2 -10 -4 -10 -3 0 -8 5 -11 10
-3 6 -1 10 4 10 6 0 11 -4 11 -10z m80 -40 c0 -5 -7 -7 -15 -4 -8 4 -15 8 -15
10 0 2 7 4 15 4 8 0 15 -4 15 -10z m4000 -230 c0 -5 -4 -10 -10 -10 -5 0 -10
5 -10 10 0 6 5 10 10 10 6 0 10 -4 10 -10z m40 -46 c0 -2 -7 -4 -15 -4 -8 0
-15 4 -15 10 0 5 7 7 15 4 8 -4 15 -8 15 -10z m-573 -246 c-3 -8 -6 -5 -6 6
-1 11 2 17 5 13 3 -3 4 -12 1 -19z m-3062 -38 c3 -5 1 -10 -4 -10 -6 0 -11 5
-11 10 0 6 2 10 4 10 3 0 8 -4 11 -10z m3802 -62 c-3 -8 -6 -5 -6 6 -1 11 2
17 5 13 3 -3 4 -12 1 -19z m-4317 -113 c0 -8 -4 -15 -10 -15 -5 0 -7 7 -4 15
4 8 8 15 10 15 2 0 4 -7 4 -15z m4198 -132 c-10 -2 -18 -9 -18 -14 0 -5 -4 -9
-10 -9 -5 0 -10 7 -10 15 0 10 9 15 28 14 16 -1 20 -3 10 -6z m-3498 -118 c10
-12 10 -15 -4 -15 -9 0 -16 7 -16 15 0 8 2 15 4 15 2 0 9 -7 16 -15z m-810
-32 c0 -10 -4 -14 -8 -8 -4 6 -11 13 -16 18 -5 4 -2 7 7 7 10 0 17 -8 17 -17z
m4277 -5 c-3 -8 -6 -5 -6 6 -1 11 2 17 5 13 3 -3 4 -12 1 -19z m-3432 -8 c3
-5 1 -10 -4 -10 -6 0 -11 5 -11 10 0 6 2 10 4 10 3 0 8 -4 11 -10z m3065 -20
c0 -5 -25 -10 -55 -10 -30 0 -55 5 -55 10 0 6 25 10 55 10 30 0 55 -4 55 -10z
m-166 -75 c-4 -8 -8 -15 -10 -15 -2 0 -4 7 -4 15 0 8 4 15 10 15 5 0 7 -7 4
-15z m-2750 -80 c3 -8 1 -15 -4 -15 -6 0 -10 7 -10 15 0 8 2 15 4 15 2 0 6 -7
10 -15z m2086 -225 c0 -5 -8 -10 -17 -10 -15 0 -16 2 -3 10 19 12 20 12 20 0z
m-2320 -20 c0 -7 -21 -10 -55 -8 -71 4 -71 18 0 18 32 0 55 -4 55 -10z m2740
0 c0 -5 -7 -10 -15 -10 -8 0 -15 5 -15 10 0 6 7 10 15 10 8 0 15 -4 15 -10z
m-2170 -16 c0 -2 -7 -4 -15 -4 -8 0 -15 4 -15 10 0 5 7 7 15 4 8 -4 15 -8 15
-10z m-1080 -54 c0 -5 -2 -10 -4 -10 -3 0 -8 5 -11 10 -3 6 -1 10 4 10 6 0 11
-4 11 -10z m2610 -10 c0 -5 -8 -10 -17 -10 -15 0 -16 2 -3 10 19 12 20 12 20
0z m-1353 -46 c-3 -3 -12 -4 -19 -1 -8 3 -5 6 6 6 11 1 17 -2 13 -5z m-497
-54 c0 -5 -2 -10 -4 -10 -3 0 -8 5 -11 10 -3 6 -1 10 4 10 6 0 11 -4 11 -10z
m787 -16 c-3 -3 -12 -4 -19 -1 -8 3 -5 6 6 6 11 1 17 -2 13 -5z m483 -25 c0
-4 17 -10 38 -12 20 -2 -61 -4 -180 -5 -120 -1 -218 1 -218 6 0 4 30 9 67 10
38 2 70 6 73 8 8 8 220 1 220 -7z m107 -15 c-3 -3 -12 -4 -19 -1 -8 3 -5 6 6
6 11 1 17 -2 13 -5z m-1307 -19 c0 -8 -4 -15 -10 -15 -5 0 -10 7 -10 15 0 8 5
15 10 15 6 0 10 -7 10 -15z m2445 -115 c3 -5 1 -10 -4 -10 -6 0 -11 5 -11 10
0 6 2 10 4 10 3 0 8 -4 11 -10z m-932 -167 c-13 -2 -33 -2 -45 0 -13 2 -3 4
22 4 25 0 35 -2 23 -4z m937 3 c0 -3 -4 -8 -10 -11 -5 -3 -10 -1 -10 4 0 6 5
11 10 11 6 0 10 -2 10 -4z m-820 -81 c0 -8 -4 -15 -10 -15 -5 0 -10 7 -10 15
0 8 5 15 10 15 6 0 10 -7 10 -15z m40 -35 c0 -5 -4 -10 -9 -10 -6 0 -13 5 -16
10 -3 6 1 10 9 10 9 0 16 -4 16 -10z m-786 -35 c-4 -8 -8 -15 -10 -15 -2 0 -4
7 -4 15 0 8 4 15 10 15 5 0 7 -7 4 -15z m826 0 c0 -8 -2 -15 -4 -15 -2 0 -6 7
-10 15 -3 8 -1 15 4 15 6 0 10 -7 10 -15z m417 -31 c-3 -3 -12 -4 -19 -1 -8 3
-5 6 6 6 11 1 17 -2 13 -5z m-387 -44 c0 -5 -4 -10 -10 -10 -5 0 -10 5 -10 10
0 6 5 10 10 10 6 0 10 -4 10 -10z m280 -29 c0 -6 -4 -13 -10 -16 -5 -3 -10 1
-10 9 0 9 5 16 10 16 6 0 10 -4 10 -9z m-1833 -37 c-3 -3 -12 -4 -19 -1 -8 3
-5 6 6 6 11 1 17 -2 13 -5z"/>
<path d="M2038 3983 c7 -3 16 -2 19 1 4 3 -2 6 -13 5 -11 0 -14 -3 -6 -6z"/>
<path d="M2242 3974 c3 -3 27 -7 54 -10 92 -8 56 -14 -89 -14 -134 0 -147 -2
-146 -17 0 -11 3 -13 6 -5 7 17 23 15 23 -3 0 -11 -12 -15 -50 -15 -43 0 -50
-3 -50 -20 0 -17 -7 -20 -40 -20 -29 0 -40 -4 -40 -15 0 -8 -7 -15 -15 -15 -8
0 -15 -9 -15 -20 0 -17 -7 -20 -40 -20 -29 0 -40 -4 -40 -15 0 -8 -7 -15 -15
-15 -8 0 -15 -9 -15 -20 0 -13 -7 -20 -20 -20 -13 0 -20 -7 -20 -20 0 -16 -7
-20 -35 -20 -19 0 -35 -5 -35 -11 0 -6 9 -8 20 -4 11 4 20 2 20 -4 0 -6 8 -11
18 -11 14 0 15 -2 2 -10 -13 -9 -13 -11 0 -20 13 -8 12 -10 -2 -10 -11 0 -18
8 -18 20 0 18 -7 20 -55 20 -48 0 -55 -2 -55 -20 0 -13 -7 -20 -20 -20 -13 0
-20 -7 -20 -20 0 -13 -7 -20 -20 -20 -16 0 -20 -7 -20 -35 0 -24 -5 -35 -15
-35 -10 0 -15 -11 -15 -35 0 -24 -5 -35 -15 -35 -18 0 -20 26 -2 33 7 3 5 6
-5 6 -14 1 -18 -7 -18 -39 0 -29 -4 -40 -15 -40 -8 0 -15 -7 -15 -15 0 -8 -9
-15 -20 -15 -13 0 -20 -7 -20 -20 0 -13 -7 -20 -20 -20 -16 0 -20 -7 -20 -35
0 -24 -5 -35 -15 -35 -10 0 -15 -11 -15 -35 0 -26 -4 -35 -16 -35 -14 0 -14 3
-4 15 10 12 10 15 -4 15 -13 0 -16 -11 -16 -55 0 -42 -3 -55 -15 -55 -18 0
-20 26 -2 33 7 3 5 6 -5 6 -16 1 -18 -9 -18 -69 0 -43 -4 -70 -11 -70 -5 0 -8
4 -5 8 3 5 1 22 -4 38 -6 21 -9 -3 -9 -83 -1 -91 -4 -113 -15 -113 -8 0 -17
10 -19 23 -2 12 -5 -54 -7 -148 -2 -140 -4 -161 -11 -116 -5 30 -12 57 -14 60
-3 2 -4 -72 -4 -165 1 -141 3 -157 9 -96 5 40 11 76 14 79 3 4 6 -60 6 -140 0
-140 1 -147 20 -147 19 0 20 -7 20 -112 0 -61 3 -109 6 -106 3 3 6 20 6 37 1
17 5 31 10 31 4 0 8 -31 8 -70 0 -60 2 -70 18 -69 10 0 12 3 5 6 -18 7 -16 33
2 33 12 0 15 -13 15 -55 0 -30 4 -55 10 -55 5 0 7 7 4 15 -4 9 0 15 10 15 13
0 16 -11 16 -55 0 -42 3 -55 15 -55 10 0 15 -11 15 -35 0 -27 4 -35 18 -34 10
0 12 3 5 6 -18 7 -16 33 2 33 10 0 15 -11 15 -35 0 -33 2 -35 35 -35 28 0 35
-4 35 -20 0 -13 7 -20 20 -20 16 0 20 -7 20 -35 0 -24 5 -35 15 -35 11 0 15
-11 15 -40 0 -33 3 -40 20 -40 11 0 20 -7 20 -15 0 -8 9 -15 20 -15 13 0 20
-7 20 -20 0 -17 7 -20 42 -20 42 0 44 -13 3 -23 -11 -3 6 -5 38 -6 43 -1 57
-5 57 -16 0 -18 -16 -20 -23 -2 -3 7 -6 5 -6 -5 -1 -14 7 -18 34 -18 28 0 35
-4 35 -20 0 -11 7 -20 15 -20 8 0 15 -7 15 -15 0 -11 11 -15 40 -15 33 0 40
-3 40 -20 0 -16 7 -20 35 -20 24 0 35 -5 35 -15 0 -18 -26 -20 -33 -2 -3 7 -6
5 -6 -5 -1 -15 8 -18 54 -18 42 0 55 -3 55 -15 0 -10 11 -15 35 -15 26 0 35
-4 35 -16 0 -14 -3 -14 -15 -4 -12 10 -15 10 -15 -4 0 -14 15 -16 108 -17 74
0 100 -3 85 -9 -13 -5 -43 -9 -68 -8 -25 0 -49 -2 -52 -6 -4 -3 191 -6 432 -6
241 0 436 2 434 4 -2 2 -35 7 -73 10 -106 9 -91 16 32 16 66 0 112 4 112 10 0
5 -7 7 -15 4 -9 -4 -15 0 -15 10 0 13 11 16 50 16 49 0 68 14 33 23 -10 3 8 5
40 6 50 1 57 3 57 21 0 11 7 20 15 20 8 0 15 7 15 16 0 14 -3 14 -15 4 -12
-10 -15 -10 -15 4 0 13 11 16 50 16 38 0 50 4 50 15 0 8 9 15 20 15 13 0 20 7
20 20 0 16 7 20 35 20 27 0 35 4 34 18 0 10 -3 12 -6 5 -7 -18 -23 -16 -23 2
0 12 13 15 55 15 l55 0 0 35 c0 33 2 35 35 35 33 0 35 2 35 35 0 24 5 35 15
35 8 0 15 9 15 20 0 11 7 20 15 20 18 0 20 -26 3 -33 -8 -3 -6 -6 5 -6 13 -1
17 7 17 34 0 28 4 35 20 35 13 0 20 7 20 20 0 11 7 20 15 20 8 0 15 9 15 20 0
13 7 20 20 20 16 0 20 7 20 35 0 25 4 35 15 35 13 0 14 -4 5 -20 -9 -16 -8
-20 5 -20 12 0 15 12 15 55 0 34 4 55 11 55 6 0 9 -9 6 -20 -3 -11 -1 -20 4
-20 5 0 9 25 9 55 0 42 3 55 15 55 18 0 20 -16 3 -23 -8 -3 -6 -6 5 -6 13 -1
17 7 17 34 0 24 5 35 15 35 10 0 15 11 15 35 0 28 4 35 20 35 18 0 20 7 20 55
0 44 3 55 16 55 11 0 15 -6 11 -20 -3 -11 -1 -20 4 -20 5 0 9 41 9 90 0 50 4
90 9 90 5 0 12 -8 14 -17 3 -10 5 129 6 310 1 226 -2 327 -10 327 -6 0 -8 -9
-4 -20 4 -11 2 -20 -4 -20 -7 0 -11 34 -11 95 0 52 -4 95 -9 95 -5 0 -7 -9 -4
-20 4 -14 0 -20 -11 -20 -13 0 -16 11 -16 55 0 43 -3 55 -16 55 -11 0 -14 -6
-9 -20 4 -11 2 -20 -4 -20 -7 0 -11 23 -11 55 0 42 -3 55 -15 55 -8 0 -15 9
-15 20 0 13 -7 20 -20 20 -17 0 -20 7 -21 53 -1 28 -3 44 -6 35 -10 -37 -23
-16 -23 37 0 48 -2 55 -20 55 -11 0 -20 7 -20 15 0 8 -9 15 -20 15 -13 0 -20
7 -20 20 0 11 -7 20 -15 20 -10 0 -15 11 -15 35 0 34 -1 35 -40 35 -33 0 -40
3 -40 20 0 11 -7 20 -15 20 -10 0 -15 11 -15 35 0 28 -4 35 -20 35 -13 0 -20
7 -20 20 0 11 -7 20 -15 20 -8 0 -15 7 -15 15 0 11 -11 15 -40 15 -33 0 -40 3
-40 20 0 16 -7 20 -35 20 -24 0 -35 5 -35 15 0 18 12 19 28 3 9 -9 12 -8 12 5
0 13 -9 17 -40 17 -29 0 -40 4 -40 15 0 10 -11 15 -35 15 -24 0 -35 5 -35 15
0 18 26 20 33 3 3 -8 6 -6 6 5 1 13 -7 17 -34 17 -24 0 -35 5 -35 15 0 11 -11
15 -40 15 -33 0 -40 3 -40 20 0 17 -7 20 -50 20 -39 0 -50 3 -50 16 0 14 3 14
15 4 12 -10 15 -10 15 4 0 14 -14 16 -90 16 -49 0 -90 4 -90 9 0 5 10 12 23
14 12 2 -135 5 -327 6 -192 0 -347 -1 -344 -5z m635 -20 c-3 -3 -12 -4 -19 -1
-8 3 -5 6 6 6 11 1 17 -2 13 -5z m-1040 -180 c-3 -3 -12 -4 -19 -1 -8 3 -5 6
6 6 11 1 17 -2 13 -5z m-40 -36 c-3 -8 -6 -5 -6 6 -1 11 2 17 5 13 3 -3 4 -12
1 -19z m1700 -74 c-3 -3 -12 -4 -19 -1 -8 3 -5 6 6 6 11 1 17 -2 13 -5z
m-1877 -29 c0 -8 -4 -15 -10 -15 -5 0 -10 7 -10 15 0 8 5 15 10 15 6 0 10 -7
10 -15z m147 -11 c-3 -3 -12 -4 -19 -1 -8 3 -5 6 6 6 11 1 17 -2 13 -5z m1013
-85 c0 -6 -7 -9 -15 -5 -8 3 -15 2 -15 -3 0 -5 -23 -9 -52 -10 -28 0 -53 -3
-56 -6 -3 -3 61 -5 141 -5 102 0 147 -3 147 -11 0 -6 -9 -9 -20 -6 -11 3 -20
1 -20 -4 0 -5 16 -9 35 -9 24 0 35 -5 35 -15 0 -18 -16 -20 -23 -2 -3 7 -6 5
-6 -5 -1 -16 9 -18 69 -18 55 0 70 -3 70 -15 0 -10 -10 -13 -35 -11 -19 1 -35
-1 -35 -6 0 -4 41 -8 90 -8 50 0 90 -4 90 -9 0 -5 -9 -7 -20 -4 -11 3 -20 0
-20 -6 0 -6 17 -11 40 -11 l40 0 0 -40 c0 -29 4 -40 15 -40 8 0 15 -7 15 -15
0 -8 9 -15 20 -15 13 0 20 -7 20 -20 0 -11 7 -20 15 -20 8 0 15 -7 15 -15 0
-8 9 -15 20 -15 13 0 20 -7 20 -20 0 -13 7 -20 20 -20 13 0 20 -7 20 -20 0
-11 7 -20 15 -20 10 0 15 -11 15 -35 0 -28 4 -35 20 -35 16 0 20 -7 20 -35 0
-27 4 -35 18 -34 10 0 12 3 5 6 -18 7 -16 33 2 33 12 0 15 -16 16 -77 1 -43 4
-68 6 -55 2 12 9 22 14 22 5 0 10 -58 10 -132 1 -73 4 -123 6 -110 2 12 8 22
13 22 4 0 6 9 3 20 -3 11 0 20 6 20 8 0 11 -50 11 -165 0 -92 -4 -165 -9 -165
-5 0 -7 9 -4 20 3 11 1 20 -5 20 -6 0 -13 8 -15 18 -3 9 -5 -49 -6 -130 0 -84
-5 -148 -10 -148 -5 0 -12 10 -14 23 -2 12 -5 -13 -6 -55 -1 -71 -3 -78 -21
-78 -11 0 -20 -7 -20 -15 0 -8 -9 -15 -20 -15 -16 0 -20 -7 -20 -35 0 -19 -5
-35 -11 -35 -6 0 -9 7 -5 15 3 8 1 15 -4 15 -6 0 -10 -16 -10 -35 0 -34 -1
-35 -40 -35 -39 0 -40 -1 -40 -35 0 -24 -5 -35 -15 -35 -8 0 -15 -9 -15 -20 0
-13 -7 -20 -20 -20 -13 0 -20 -7 -20 -20 0 -11 -7 -20 -15 -20 -8 0 -15 -7
-15 -15 0 -8 -9 -15 -20 -15 -13 0 -20 -7 -20 -20 0 -13 -7 -20 -20 -20 -11 0
-20 -7 -20 -15 0 -11 -13 -15 -52 -16 -29 -1 -45 -3 -35 -6 9 -2 17 -11 17
-19 0 -11 -16 -14 -70 -14 -60 0 -70 -2 -69 -17 0 -11 3 -13 6 -5 7 17 23 15
23 -3 0 -10 -11 -15 -35 -15 -19 0 -35 -4 -35 -9 0 -6 9 -8 20 -6 11 2 20 0
20 -6 0 -5 -49 -9 -112 -10 -81 0 -105 -3 -84 -9 16 -5 33 -7 38 -4 4 3 8 -2
8 -10 0 -14 -27 -16 -215 -16 -198 0 -215 1 -214 18 0 11 2 12 6 4 3 -9 9 -10
17 -3 6 5 29 11 51 14 22 2 -4 4 -57 5 -90 2 -129 15 -75 25 12 2 -20 5 -70 6
-51 0 -93 5 -93 10 0 6 9 8 20 6 11 -2 20 0 20 5 0 5 8 11 18 13 9 3 -16 5
-55 6 -66 1 -73 3 -73 21 0 13 -7 20 -20 20 -11 0 -20 7 -20 15 0 10 -11 15
-35 15 -33 0 -35 2 -35 35 0 33 -2 35 -35 35 -28 0 -35 4 -35 20 0 13 -7 20
-20 20 -13 0 -20 7 -20 20 0 13 -7 20 -20 20 -11 0 -20 7 -20 15 0 8 -7 15
-15 15 -11 0 -15 11 -15 40 0 31 -4 40 -17 40 -13 0 -14 -3 -5 -12 16 -16 15
-28 -3 -28 -12 0 -15 13 -15 55 0 30 -4 55 -9 55 -5 0 -7 -9 -4 -20 3 -11 0
-20 -6 -20 -7 0 -11 21 -11 55 0 30 -4 55 -9 55 -5 0 -7 -9 -4 -20 4 -14 0
-20 -11 -20 -13 0 -16 11 -16 55 0 30 -4 55 -10 55 -5 0 -7 -7 -4 -15 4 -9 0
-15 -10 -15 -13 0 -16 11 -16 50 0 28 -4 50 -10 50 -5 0 -7 -7 -4 -15 4 -8 1
-15 -5 -15 -7 0 -11 32 -12 93 -1 50 -4 82 -6 70 -2 -13 -11 -23 -19 -23 -12
0 -14 31 -14 185 0 164 2 185 16 185 11 0 15 -6 11 -20 -3 -11 -1 -20 4 -20 5
0 9 41 9 90 0 60 4 90 11 90 6 0 9 -9 6 -20 -3 -11 -1 -20 4 -20 5 0 9 25 9
55 0 48 2 55 20 55 18 0 20 7 20 55 0 44 3 55 16 55 14 0 14 -3 4 -15 -10 -12
-10 -15 4 -15 12 0 16 9 16 35 0 24 5 35 15 35 10 0 15 11 15 35 0 24 5 35 15
35 18 0 20 -26 3 -33 -8 -3 -6 -6 5 -6 13 -1 17 7 17 39 0 29 4 40 15 40 8 0
15 7 15 15 0 8 9 15 20 15 13 0 20 7 20 20 0 13 7 20 20 20 11 0 20 7 20 15 0
8 7 15 15 15 8 0 15 9 15 20 0 13 7 20 20 20 13 0 20 7 20 20 0 16 7 20 35 20
19 0 35 4 35 10 0 5 -7 7 -15 4 -8 -4 -15 -1 -15 5 0 6 16 11 35 11 28 0 35 4
35 20 0 18 7 20 70 20 39 0 70 4 70 10 0 5 -7 7 -15 4 -9 -4 -15 0 -15 10 0
13 11 16 53 17 28 1 44 3 35 6 -10 2 -18 9 -18 14 0 5 77 10 178 11 149 2 158
3 55 5 -100 3 -123 6 -123 18 0 13 33 15 215 15 151 0 215 -3 215 -11z m1000
-194 c0 -8 -4 -15 -10 -15 -5 0 -10 7 -10 15 0 8 5 15 10 15 6 0 10 -7 10 -15z
m-530 -30 c0 -8 -2 -15 -4 -15 -2 0 -6 7 -10 15 -3 8 -1 15 4 15 6 0 10 -7 10
-15z m40 -35 c0 -5 -7 -7 -15 -4 -8 4 -15 8 -15 10 0 2 7 4 15 4 8 0 15 -4 15
-10z m-1462 -32 c-6 -18 -28 -21 -28 -4 0 9 7 16 16 16 9 0 14 -5 12 -12z
m2056 -123 c3 -8 1 -15 -4 -15 -6 0 -10 7 -10 15 0 8 2 15 4 15 2 0 6 -7 10
-15z m-414 -55 c0 -5 -2 -10 -4 -10 -3 0 -8 5 -11 10 -3 6 -1 10 4 10 6 0 11
-4 11 -10z m-2280 -235 c0 -8 -2 -15 -4 -15 -2 0 -6 7 -10 15 -3 8 -1 15 4 15
6 0 10 -7 10 -15z m384 -503 c3 -5 -1 -9 -9 -9 -8 0 -15 4 -15 9 0 4 4 8 9 8
6 0 12 -4 15 -8z m-384 -102 c0 -5 -2 -10 -4 -10 -3 0 -8 5 -11 10 -3 6 -1 10
4 10 6 0 11 -4 11 -10z m2757 -112 c-3 -8 -6 -5 -6 6 -1 11 2 17 5 13 3 -3 4
-12 1 -19z m-40 -110 c-3 -8 -6 -5 -6 6 -1 11 2 17 5 13 3 -3 4 -12 1 -19z
m-547 -113 c0 -8 -7 -15 -15 -15 -16 0 -20 12 -8 23 11 12 23 8 23 -8z m-1500
-110 c10 -12 10 -15 -4 -15 -9 0 -16 7 -16 15 0 8 2 15 4 15 2 0 9 -7 16 -15z
m75 -35 c3 -5 -1 -10 -9 -10 -9 0 -16 5 -16 10 0 6 4 10 9 10 6 0 13 -4 16
-10z m1285 -35 c0 -8 -7 -15 -15 -15 -16 0 -20 12 -8 23 11 12 23 8 23 -8z
m-1810 -25 c0 -5 -7 -10 -15 -10 -8 0 -15 5 -15 10 0 6 7 10 15 10 8 0 15 -4
15 -10z m1767 -16 c-3 -3 -12 -4 -19 -1 -8 3 -5 6 6 6 11 1 17 -2 13 -5z m-67
-29 c0 -8 -7 -15 -15 -15 -8 0 -15 5 -15 11 0 5 5 7 10 4 6 -3 10 -1 10 4 0 6
2 11 5 11 3 0 5 -7 5 -15z m-110 -45 c0 -5 -8 -10 -17 -10 -15 0 -16 2 -3 10
19 12 20 12 20 0z m-1450 -90 c0 -5 -2 -10 -4 -10 -3 0 -8 5 -11 10 -3 6 -1
10 4 10 6 0 11 -4 11 -10z m40 -40 c0 -5 -4 -10 -9 -10 -6 0 -13 5 -16 10 -3
6 1 10 9 10 9 0 16 -4 16 -10z m1975 0 c-3 -5 -10 -10 -16 -10 -5 0 -9 5 -9
10 0 6 7 10 16 10 8 0 12 -4 9 -10z m-1945 -36 c0 -8 -4 -12 -10 -9 -5 3 -10
10 -10 16 0 5 5 9 10 9 6 0 10 -7 10 -16z m80 -34 c0 -5 -2 -10 -4 -10 -3 0
-8 5 -11 10 -3 6 -1 10 4 10 6 0 11 -4 11 -10z m1800 0 c0 -5 -7 -10 -15 -10
-8 0 -15 5 -15 10 0 6 7 10 15 10 8 0 15 -4 15 -10z m-1730 -30 c0 -5 -7 -7
-15 -4 -8 4 -15 8 -15 10 0 2 7 4 15 4 8 0 15 -4 15 -10z m30 -45 c0 -8 -2
-15 -4 -15 -2 0 -6 7 -10 15 -3 8 -1 15 4 15 6 0 10 -7 10 -15z m1405 -105
c-3 -5 -10 -10 -16 -10 -5 0 -9 5 -9 10 0 6 7 10 16 10 8 0 12 -4 9 -10z
m-1148 -36 c-3 -3 -12 -4 -19 -1 -8 3 -5 6 6 6 11 1 17 -2 13 -5z"/>
<path d="M2608 3513 c7 -3 16 -2 19 1 4 3 -2 6 -13 5 -11 0 -14 -3 -6 -6z"/>
<path d="M2422 3434 c3 -3 20 -6 37 -6 17 -1 31 -5 31 -10 0 -5 9 -6 20 -3 11
4 20 2 20 -4 0 -7 -45 -11 -130 -11 -71 0 -130 -4 -130 -9 0 -5 9 -7 20 -4 11
3 20 0 20 -6 0 -7 -30 -11 -90 -11 -49 0 -90 -4 -90 -9 0 -5 9 -7 20 -4 14 4
20 0 20 -11 0 -12 -10 -16 -40 -16 -33 0 -40 -3 -40 -20 0 -11 -7 -20 -15 -20
-8 0 -15 -7 -15 -15 0 -8 -9 -15 -20 -15 -13 0 -20 -7 -20 -20 0 -11 -7 -20
-15 -20 -8 0 -15 -7 -15 -15 0 -8 -9 -15 -20 -15 -13 0 -20 -7 -20 -20 0 -13
-7 -20 -20 -20 -13 0 -20 -7 -20 -20 0 -11 -7 -20 -15 -20 -8 0 -15 -7 -15
-15 0 -11 -11 -15 -40 -15 l-40 0 0 -75 c0 -49 -4 -75 -11 -75 -6 0 -9 9 -6
20 3 11 1 20 -4 20 -5 0 -9 -34 -9 -75 0 -62 -3 -75 -16 -75 -11 0 -15 6 -11
20 3 11 1 20 -4 20 -5 0 -9 -31 -9 -70 0 -45 -4 -70 -11 -70 -6 0 -9 7 -5 15
3 8 1 15 -4 15 -6 0 -10 -83 -9 -217 1 -120 3 -210 6 -200 11 40 23 12 24 -55
1 -40 3 -65 6 -55 2 9 11 17 19 17 11 0 14 -17 15 -72 1 -40 4 -63 6 -50 8 42
23 22 23 -33 0 -48 2 -55 20 -55 13 0 20 -7 20 -20 0 -13 7 -20 20 -20 11 0
20 -7 20 -15 0 -8 7 -15 15 -15 8 0 15 -9 15 -20 0 -13 7 -20 20 -20 13 0 20
-7 20 -20 0 -13 7 -20 20 -20 11 0 20 -7 20 -15 0 -8 7 -15 15 -15 8 0 15 -9
15 -20 0 -13 7 -20 20 -20 13 0 20 -7 20 -20 0 -16 7 -20 35 -20 19 0 35 -5
35 -11 0 -6 -9 -9 -20 -6 -11 3 -20 1 -20 -4 0 -5 34 -9 75 -9 46 0 75 -4 75
-11 0 -6 -9 -8 -20 -4 -11 4 -20 2 -20 -4 0 -6 -16 -9 -35 -7 -19 1 -35 -1
-35 -6 0 -4 51 -8 113 -9 91 -1 106 -3 78 -11 -19 -5 -45 -8 -58 -5 -13 2 -23
0 -23 -4 0 -5 146 -9 325 -9 231 0 325 3 325 11 0 6 -7 9 -15 5 -8 -3 -25 -1
-37 4 -17 6 -4 9 50 9 65 1 72 3 72 21 0 17 7 20 40 20 22 0 40 4 40 9 0 5 -9
7 -20 4 -11 -3 -20 0 -20 6 0 7 21 11 55 11 46 0 55 3 54 18 0 10 -3 12 -6 5
-7 -18 -33 -16 -33 2 0 8 9 15 20 15 13 0 20 7 20 20 0 16 7 20 35 20 33 0 35
2 35 35 0 28 4 35 20 35 13 0 20 7 20 20 0 11 7 20 15 20 8 0 15 7 15 15 0 8
9 15 20 15 16 0 20 7 20 35 0 19 5 35 11 35 6 0 9 -7 5 -15 -3 -8 -1 -15 4
-15 6 0 10 25 10 55 0 44 3 55 16 55 11 0 15 -6 11 -20 -3 -11 -1 -20 4 -20 5
0 9 25 9 55 0 44 3 55 16 55 11 0 15 -6 11 -20 -3 -11 -1 -20 4 -20 5 0 9 16
9 35 0 24 5 35 15 35 12 0 15 15 15 75 0 60 3 75 15 75 18 0 19 -12 3 -28 -9
-9 -8 -12 5 -12 15 0 17 18 17 185 0 104 -4 185 -9 185 -5 0 -7 -9 -4 -20 4
-14 0 -20 -11 -20 -13 0 -16 12 -16 70 0 56 -3 70 -15 70 -12 0 -15 13 -15 55
0 46 -3 55 -17 54 -11 0 -13 -3 -5 -6 17 -7 15 -23 -3 -23 -10 0 -15 11 -15
35 0 28 -4 35 -20 35 -16 0 -20 7 -20 35 0 24 -5 35 -15 35 -8 0 -15 9 -15 20
0 16 -7 20 -35 20 -33 0 -35 2 -35 35 0 28 -4 35 -20 35 -16 0 -20 7 -20 35 0
33 -2 35 -35 35 -33 0 -35 2 -35 35 0 33 -2 35 -35 35 -28 0 -35 4 -35 20 0
17 -7 20 -40 20 -33 0 -40 3 -40 20 0 18 -7 20 -55 20 -55 0 -75 15 -32 23 12
2 -44 5 -125 6 -113 1 -148 4 -148 14 0 8 13 12 35 12 19 -1 35 2 35 7 0 4
-57 8 -127 8 -69 0 -124 -3 -121 -6z m415 -60 c-3 -3 -12 -4 -19 -1 -8 3 -5 6
6 6 11 1 17 -2 13 -5z m123 -71 c0 -7 -7 -13 -15 -13 -10 0 -15 10 -15 32 0
30 1 31 15 12 8 -10 15 -25 15 -31z m135 -33 c3 -5 -1 -10 -9 -10 -9 0 -16 5
-16 10 0 6 4 10 9 10 6 0 13 -4 16 -10z m-1035 -35 c0 -8 -7 -15 -15 -15 -26
0 -18 20 13 29 1 1 2 -6 2 -14z m-70 -70 c0 -8 -7 -15 -15 -15 -13 0 -14 3 -3
15 16 18 18 18 18 0z m-80 -75 c0 -5 -5 -10 -11 -10 -5 0 -7 5 -4 10 3 6 8 10
11 10 2 0 4 -4 4 -10z m-70 -35 c0 -8 -7 -15 -15 -15 -8 0 -15 7 -15 15 0 8 7
15 15 15 8 0 15 -7 15 -15z m1465 -35 c3 -5 1 -10 -4 -10 -6 0 -11 5 -11 10 0
6 2 10 4 10 3 0 8 -4 11 -10z m-595 -24 c0 -12 -25 -15 -145 -15 -120 0 -145
3 -145 15 0 11 25 14 145 14 120 0 145 -3 145 -14z m70 -42 c0 -10 -6 -14 -15
-10 -8 3 -15 1 -15 -4 0 -6 23 -10 50 -10 30 0 50 -4 50 -11 0 -6 -7 -9 -15
-5 -8 3 -15 1 -15 -4 0 -6 16 -10 35 -10 28 0 35 -4 35 -20 0 -13 7 -20 20
-20 16 0 20 -7 20 -35 0 -19 4 -35 10 -35 5 0 7 7 4 15 -4 8 -1 15 5 15 6 0
11 -16 11 -35 0 -28 4 -35 20 -35 18 0 20 -7 21 -72 1 -40 3 -65 6 -55 2 9 11
17 19 17 11 0 14 -21 14 -105 0 -90 -2 -105 -16 -105 -10 0 -14 6 -10 15 3 8
1 15 -4 15 -6 0 -10 -31 -10 -70 0 -58 -3 -70 -16 -70 -14 0 -14 3 -4 15 10
12 10 15 -4 15 -13 0 -16 -11 -16 -55 0 -42 -3 -55 -15 -55 -8 0 -15 -7 -15
-15 0 -8 -9 -15 -20 -15 -13 0 -20 -7 -20 -20 0 -16 -7 -20 -35 -20 -19 0 -35
-4 -35 -10 0 -5 7 -7 15 -4 8 4 15 1 15 -5 0 -7 -20 -11 -50 -11 -41 0 -50 -3
-49 -17 0 -11 3 -13 6 -5 7 17 23 15 23 -3 0 -12 -15 -15 -72 -16 -54 0 -67
-3 -50 -9 12 -5 29 -7 37 -4 9 4 15 0 15 -10 0 -14 -18 -16 -145 -16 -127 0
-145 2 -145 16 0 10 6 14 15 10 8 -3 25 -1 37 4 17 6 4 9 -49 9 -66 1 -73 3
-73 21 0 13 -7 20 -20 20 -11 0 -20 5 -20 11 0 6 9 9 20 6 11 -3 20 -1 20 4 0
5 -18 9 -40 9 -33 0 -40 3 -40 20 0 16 -7 20 -35 20 -19 0 -35 5 -35 11 0 6 9
9 20 6 11 -3 20 -1 20 4 0 5 -16 9 -35 9 -34 0 -35 1 -35 40 0 33 -3 40 -20
40 -18 0 -20 7 -20 55 0 30 -3 55 -7 55 -5 0 -8 -16 -8 -37 0 -20 -6 -38 -12
-40 -10 -4 -13 33 -13 161 0 146 2 166 16 166 11 0 15 -6 11 -20 -3 -11 -1
-20 4 -20 5 0 9 34 9 75 0 60 3 75 15 75 18 0 20 -26 3 -33 -8 -3 -6 -6 5 -6
13 -1 17 7 17 34 0 33 2 35 35 35 19 0 35 4 35 9 0 5 -9 7 -20 4 -14 -4 -20 0
-20 11 0 12 9 16 35 16 28 0 35 4 35 20 0 13 7 20 20 20 11 0 20 4 20 9 0 5
-9 7 -20 4 -11 -3 -20 0 -20 6 0 7 21 11 55 11 46 0 55 3 54 18 0 10 -3 12 -6
5 -7 -18 -23 -16 -23 2 0 13 31 15 215 15 191 0 215 -2 215 -16z m-525 -63 c3
-5 1 -12 -5 -16 -5 -3 -10 1 -10 9 0 18 6 21 15 7z m-158 -193 c-3 -8 -6 -5
-6 6 -1 11 2 17 5 13 3 -3 4 -12 1 -19z m940 -300 c-3 -8 -6 -5 -6 6 -1 11 2
17 5 13 3 -3 4 -12 1 -19z m-892 -108 c3 -5 1 -10 -4 -10 -6 0 -11 5 -11 10 0
6 2 10 4 10 3 0 8 -4 11 -10z m1269 -25 c-4 -8 -8 -15 -10 -15 -2 0 -4 7 -4
15 0 8 4 15 10 15 5 0 7 -7 4 -15z m-1231 -75 c3 -11 1 -20 -4 -20 -5 0 -9 9
-9 20 0 11 2 20 4 20 2 0 6 -9 9 -20z m-193 -280 c0 -5 -7 -7 -15 -4 -8 4 -15
8 -15 10 0 2 7 4 15 4 8 0 15 -4 15 -10z m30 -40 c0 -5 -2 -10 -4 -10 -3 0 -8
5 -11 10 -3 6 -1 10 4 10 6 0 11 -4 11 -10z m1150 6 c0 -2 -7 -6 -15 -10 -8
-3 -15 -1 -15 4 0 6 7 10 15 10 8 0 15 -2 15 -4z m-226 -151 c-4 -8 -8 -15
-10 -15 -2 0 -4 7 -4 15 0 8 4 15 10 15 5 0 7 -7 4 -15z"/>
<path d="M2540 2894 c36 -8 100 -9 100 -2 0 5 -26 7 -57 7 -32 -1 -51 -3 -43
-5z"/>
<path d="M2421 2843 c0 -11 3 -13 6 -5 7 17 33 15 33 -3 0 -12 -13 -15 -55
-15 -42 0 -55 -3 -55 -15 0 -8 -9 -15 -20 -15 -16 0 -20 -7 -20 -35 0 -24 -5
-35 -15 -35 -18 0 -20 16 -2 23 7 3 5 6 -5 6 -14 1 -18 -7 -18 -34 0 -19 -5
-35 -11 -35 -6 0 -9 9 -6 20 3 11 1 20 -4 20 -5 0 -9 -73 -9 -165 0 -92 4
-165 9 -165 5 0 7 9 4 20 -3 11 0 20 6 20 6 0 11 -17 11 -40 0 -33 3 -40 20
-40 16 0 20 -7 20 -35 0 -28 4 -35 20 -35 13 0 20 -7 20 -20 0 -16 7 -20 35
-20 39 0 48 -16 13 -23 -13 -2 52 -5 145 -6 94 0 167 3 167 8 0 5 -9 7 -20 4
-11 -3 -20 0 -20 6 0 7 26 11 75 11 65 0 75 2 74 18 0 10 -3 12 -6 5 -7 -18
-33 -16 -33 2 0 8 9 15 20 15 13 0 20 7 20 20 0 11 7 20 15 20 8 0 15 7 15 15
0 8 9 15 20 15 19 0 20 7 20 185 0 178 -1 185 -20 185 -11 0 -20 7 -20 15 0 8
-7 15 -15 15 -8 0 -15 9 -15 20 0 16 -7 20 -35 20 -19 0 -35 4 -35 10 0 5 7 7
15 4 8 -4 15 -1 15 5 0 6 -16 11 -35 11 -28 0 -35 4 -35 20 0 19 -7 20 -145
20 -132 0 -145 -2 -144 -17z m-41 -43 c0 -5 -5 -10 -11 -10 -5 0 -7 5 -4 10 3
6 8 10 11 10 2 0 4 -4 4 -10z m496 -132 c4 -7 3 -8 -4 -4 -7 4 -12 3 -12 -3 0
-5 6 -12 13 -14 7 -3 5 -6 -5 -6 -12 -1 -18 6 -18 19 0 22 15 27 26 8z m-526
-364 c0 -9 -5 -14 -12 -12 -18 6 -21 28 -4 28 9 0 16 -7 16 -16z m30 -40 c0
-8 -4 -12 -10 -9 -5 3 -10 10 -10 16 0 5 5 9 10 9 6 0 10 -7 10 -16z m390 12
c0 -3 -4 -8 -10 -11 -5 -3 -10 -1 -10 4 0 6 5 11 10 11 6 0 10 -2 10 -4z
m-310 -46 c0 -5 -7 -7 -15 -4 -8 4 -15 8 -15 10 0 2 7 4 15 4 8 0 15 -4 15
-10z"/>
<path d="M2798 2813 c7 -3 16 -2 19 1 4 3 -2 6 -13 5 -11 0 -14 -3 -6 -6z"/>
<path d="M2185 2800 c-3 -5 -1 -10 4 -10 6 0 11 5 11 10 0 6 -2 10 -4 10 -3 0
-8 -4 -11 -10z"/>
<path d="M2836 2775 c4 -8 8 -15 10 -15 2 0 4 7 4 15 0 8 -4 15 -10 15 -5 0
-7 -7 -4 -15z"/>
<path d="M2860 2746 c0 -2 7 -6 15 -10 8 -3 15 -1 15 4 0 6 -7 10 -15 10 -8 0
-15 -2 -15 -4z"/>
<path d="M2924 2570 c0 -63 1 -89 3 -57 2 31 2 83 0 115 -2 31 -3 5 -3 -58z"/>
<path d="M2875 2330 c-3 -5 -1 -10 4 -10 6 0 11 5 11 10 0 6 -2 10 -4 10 -3 0
-8 -4 -11 -10z"/>
<path d="M2186 2265 c4 -8 8 -15 10 -15 2 0 4 7 4 15 0 8 -4 15 -10 15 -5 0
-7 -7 -4 -15z"/>
<path d="M2931 2264 c0 -11 3 -14 6 -6 3 7 2 16 -1 19 -3 4 -6 -2 -5 -13z"/>
<path d="M2728 2213 c7 -3 16 -2 19 1 4 3 -2 6 -13 5 -11 0 -14 -3 -6 -6z"/>
<path d="M2518 2173 c18 -2 45 -2 60 0 15 2 0 4 -33 4 -33 0 -45 -2 -27 -4z"/>
<path d="M2978 3363 c7 -3 16 -2 19 1 4 3 -2 6 -13 5 -11 0 -14 -3 -6 -6z"/>
<path d="M3180 3345 c0 -8 7 -15 16 -15 14 0 14 3 4 15 -7 8 -14 15 -16 15 -2
0 -4 -7 -4 -15z"/>
<path d="M1970 3340 c-13 -8 -12 -10 3 -10 9 0 17 5 17 10 0 12 -1 12 -20 0z"/>
<path d="M3125 3250 c3 -5 8 -10 11 -10 2 0 4 5 4 10 0 6 -5 10 -11 10 -5 0
-7 -4 -4 -10z"/>
<path d="M3250 3237 c0 -10 8 -17 18 -17 9 0 13 4 7 8 -5 4 -13 11 -17 16 -5
5 -8 2 -8 -7z"/>
<path d="M3211 3174 c0 -11 3 -14 6 -6 3 7 2 16 -1 19 -3 4 -6 -2 -5 -13z"/>
<path d="M3360 3127 c0 -10 8 -17 18 -17 9 0 13 4 7 8 -5 4 -13 11 -17 16 -5
5 -8 2 -8 -7z"/>
<path d="M3235 3100 c3 -5 8 -10 11 -10 2 0 4 5 4 10 0 6 -5 10 -11 10 -5 0
-7 -4 -4 -10z"/>
<path d="M3400 3090 c0 -5 5 -10 11 -10 5 0 7 5 4 10 -3 6 -8 10 -11 10 -2 0
-4 -4 -4 -10z"/>
<path d="M1721 3054 c0 -11 3 -14 6 -6 3 7 2 16 -1 19 -3 4 -6 -2 -5 -13z"/>
<path d="M3351 2994 c0 -11 3 -14 6 -6 3 7 2 16 -1 19 -3 4 -6 -2 -5 -13z"/>
<path d="M1691 2984 c0 -11 3 -14 6 -6 3 7 2 16 -1 19 -3 4 -6 -2 -5 -13z"/>
<path d="M3421 2844 c0 -11 3 -14 6 -6 3 7 2 16 -1 19 -3 4 -6 -2 -5 -13z"/>
<path d="M1581 2654 c0 -11 3 -14 6 -6 3 7 2 16 -1 19 -3 4 -6 -2 -5 -13z"/>
<path d="M3471 2084 c0 -11 3 -14 6 -6 3 7 2 16 -1 19 -3 4 -6 -2 -5 -13z"/>
<path d="M1800 2005 c0 -8 4 -15 10 -15 5 0 7 7 4 15 -4 8 -8 15 -10 15 -2 0
-4 -7 -4 -15z"/>
<path d="M1840 1970 c0 -6 7 -10 15 -10 8 0 15 2 15 4 0 2 -7 6 -15 10 -8 3
-15 1 -15 -4z"/>
<path d="M3360 1943 c0 -10 4 -14 8 -8 4 6 11 13 16 18 5 4 2 7 -7 7 -10 0
-17 -8 -17 -17z"/>
<path d="M3205 1890 c-3 -5 -1 -10 4 -10 6 0 11 5 11 10 0 6 -2 10 -4 10 -3 0
-8 -4 -11 -10z"/>
<path d="M3290 1869 c0 -5 5 -7 10 -4 6 3 10 8 10 11 0 2 -4 4 -10 4 -5 0 -10
-5 -10 -11z"/>
<path d="M3250 1833 c0 -10 4 -14 8 -8 4 6 11 13 16 18 5 4 2 7 -7 7 -10 0
-17 -8 -17 -17z"/>
<path d="M3125 1820 c-3 -5 -1 -10 4 -10 6 0 11 5 11 10 0 6 -2 10 -4 10 -3 0
-8 -4 -11 -10z"/>
<path d="M1960 1736 c0 -2 7 -6 15 -10 8 -3 15 -1 15 4 0 6 -7 10 -15 10 -8 0
-15 -2 -15 -4z"/>
<path d="M2908 1673 c7 -3 16 -2 19 1 4 3 -2 6 -13 5 -11 0 -14 -3 -6 -6z"/>
<path d="M2473 1633 c54 -2 139 -2 190 0 51 1 7 3 -98 3 -104 0 -146 -2 -92
-3z"/>
<path d="M3470 3810 c0 -5 5 -10 11 -10 5 0 7 5 4 10 -3 6 -8 10 -11 10 -2 0
-4 -4 -4 -10z"/>
<path d="M3510 3780 c0 -5 5 -10 11 -10 5 0 7 5 4 10 -3 6 -8 10 -11 10 -2 0
-4 -4 -4 -10z"/>
<path d="M1572 3745 c-11 -12 -10 -15 3 -15 8 0 15 7 15 15 0 18 -2 18 -18 0z"/>
<path d="M3540 3747 c0 -10 8 -17 18 -17 9 0 13 4 7 8 -5 4 -13 11 -17 16 -5
5 -8 2 -8 -7z"/>
<path d="M3440 3726 c0 -2 7 -6 15 -10 8 -3 15 -1 15 4 0 6 -7 10 -15 10 -8 0
-15 -2 -15 -4z"/>
<path d="M3690 3635 c0 -8 4 -15 10 -15 5 0 7 7 4 15 -4 8 -8 15 -10 15 -2 0
-4 -7 -4 -15z"/>
<path d="M3720 3590 c0 -6 7 -10 15 -10 8 0 15 2 15 4 0 2 -7 6 -15 10 -8 3
-15 1 -15 -4z"/>
<path d="M3595 3570 c3 -5 8 -10 11 -10 2 0 4 5 4 10 0 6 -5 10 -11 10 -5 0
-7 -4 -4 -10z"/>
<path d="M3626 3543 c5 -5 12 -12 16 -18 4 -6 8 -2 8 8 0 9 -7 17 -17 17 -9 0
-12 -3 -7 -7z"/>
<path d="M1315 3490 c-3 -5 -1 -10 4 -10 6 0 11 5 11 10 0 6 -2 10 -4 10 -3 0
-8 -4 -11 -10z"/>
<path d="M3706 3465 c4 -8 8 -15 10 -15 2 0 4 7 4 15 0 8 -4 15 -10 15 -5 0
-7 -7 -4 -15z"/>
<path d="M3830 3410 c0 -5 5 -10 11 -10 5 0 7 5 4 10 -3 6 -8 10 -11 10 -2 0
-4 -4 -4 -10z"/>
<path d="M1370 3390 c0 -5 7 -7 15 -4 8 4 15 8 15 10 0 2 -7 4 -15 4 -8 0 -15
-4 -15 -10z"/>
<path d="M1330 3353 c0 -10 4 -14 8 -8 4 6 11 13 16 18 5 4 2 7 -7 7 -10 0
-17 -8 -17 -17z"/>
<path d="M1300 3279 c0 -5 5 -7 10 -4 6 3 10 8 10 11 0 2 -4 4 -10 4 -5 0 -10
-5 -10 -11z"/>
<path d="M1141 3124 c0 -11 3 -14 6 -6 3 7 2 16 -1 19 -3 4 -6 -2 -5 -13z"/>
<path d="M1071 2944 c0 -11 3 -14 6 -6 3 7 2 16 -1 19 -3 4 -6 -2 -5 -13z"/>
<path d="M4001 2884 c0 -11 3 -14 6 -6 3 7 2 16 -1 19 -3 4 -6 -2 -5 -13z"/>
<path d="M4044 2550 c0 -52 1 -74 3 -47 2 26 2 68 0 95 -2 26 -3 4 -3 -48z"/>
<path d="M1151 2184 c0 -11 3 -14 6 -6 3 7 2 16 -1 19 -3 4 -6 -2 -5 -13z"/>
<path d="M4001 2184 c0 -11 3 -14 6 -6 3 7 2 16 -1 19 -3 4 -6 -2 -5 -13z"/>
<path d="M1071 2124 c0 -11 3 -14 6 -6 3 7 2 16 -1 19 -3 4 -6 -2 -5 -13z"/>
<path d="M3900 1723 c0 -10 4 -14 8 -8 4 6 11 13 16 18 5 4 2 7 -7 7 -10 0
-17 -8 -17 -17z"/>
<path d="M3742 1645 c-11 -12 -10 -15 3 -15 8 0 15 7 15 15 0 18 -2 18 -18 0z"/>
<path d="M1410 1640 c0 -5 5 -10 11 -10 5 0 7 5 4 10 -3 6 -8 10 -11 10 -2 0
-4 -4 -4 -10z"/>
<path d="M1440 1605 c0 -8 4 -15 10 -15 5 0 7 7 4 15 -4 8 -8 15 -10 15 -2 0
-4 -7 -4 -15z"/>
<path d="M3706 1605 c-3 -8 -1 -15 4 -15 6 0 10 7 10 15 0 8 -2 15 -4 15 -2 0
-6 -7 -10 -15z"/>
<path d="M1315 1580 c3 -5 8 -10 11 -10 2 0 4 5 4 10 0 6 -5 10 -11 10 -5 0
-7 -4 -4 -10z"/>
<path d="M3670 1570 c-13 -8 -12 -10 3 -10 9 0 17 5 17 10 0 12 -1 12 -20 0z"/>
<path d="M1346 1553 c5 -5 12 -12 16 -18 4 -6 8 -2 8 8 0 9 -7 17 -17 17 -9 0
-12 -3 -7 -7z"/>
<path d="M1481 1534 c0 -11 3 -14 6 -6 3 7 2 16 -1 19 -3 4 -6 -2 -5 -13z"/>
<path d="M3761 1504 c0 -11 3 -14 6 -6 3 7 2 16 -1 19 -3 4 -6 -2 -5 -13z"/>
<path d="M3596 1495 c-3 -8 -1 -15 4 -15 6 0 10 7 10 15 0 8 -2 15 -4 15 -2 0
-6 -7 -10 -15z"/>
<path d="M3720 1470 c0 -5 7 -7 15 -4 8 4 15 8 15 10 0 2 -7 4 -15 4 -8 0 -15
-4 -15 -10z"/>
<path d="M3526 1425 c-3 -8 -1 -15 4 -15 6 0 10 7 10 15 0 8 -2 15 -4 15 -2 0
-6 -7 -10 -15z"/>
<path d="M1450 1406 c0 -2 7 -6 15 -10 8 -3 15 -1 15 4 0 6 -7 10 -15 10 -8 0
-15 -2 -15 -4z"/>
<path d="M1566 1333 c5 -5 12 -12 16 -18 4 -6 8 -2 8 8 0 9 -7 17 -17 17 -9 0
-12 -3 -7 -7z"/>
<path d="M3540 1330 c0 -5 7 -7 15 -4 8 4 15 8 15 10 0 2 -7 4 -15 4 -8 0 -15
-4 -15 -10z"/>
<path d="M3382 1315 c-11 -12 -10 -15 3 -15 8 0 15 7 15 15 0 18 -2 18 -18 0z"/>
<path d="M3510 1289 c0 -5 5 -7 10 -4 6 3 10 8 10 11 0 2 -4 4 -10 4 -5 0 -10
-5 -10 -11z"/>
<path d="M3338 1273 c7 -3 16 -2 19 1 4 3 -2 6 -13 5 -11 0 -14 -3 -6 -6z"/>
<path d="M1840 1240 c0 -6 7 -10 15 -10 8 0 15 2 15 4 0 2 -7 6 -15 10 -8 3
-15 1 -15 -4z"/>
<path d="M3268 1233 c7 -3 16 -2 19 1 4 3 -2 6 -13 5 -11 0 -14 -3 -6 -6z"/>
<path d="M1715 1220 c3 -5 8 -10 11 -10 2 0 4 5 4 10 0 6 -5 10 -11 10 -5 0
-7 -4 -4 -10z"/>
<path d="M3430 1220 c0 -5 7 -7 15 -4 8 4 15 8 15 10 0 2 -7 4 -15 4 -8 0 -15
-4 -15 -10z"/>
<path d="M1850 1116 c0 -2 7 -6 15 -10 8 -3 15 -1 15 4 0 6 -7 10 -15 10 -8 0
-15 -2 -15 -4z"/>
<path d="M2463 1053 c48 -2 125 -2 170 0 45 1 6 3 -88 3 -93 0 -130 -2 -82 -3z"/>
<path d="M1950 4797 c0 -10 8 -17 18 -17 9 0 13 4 7 8 -5 4 -13 11 -17 16 -5
5 -8 2 -8 -7z"/>
<path d="M2661 4794 c0 -11 3 -14 6 -6 3 7 2 16 -1 19 -3 4 -6 -2 -5 -13z"/>
<path d="M3580 4795 c0 -8 4 -15 10 -15 5 0 7 7 4 15 -4 8 -8 15 -10 15 -2 0
-4 -7 -4 -15z"/>
<path d="M1818 4773 c7 -3 16 -2 19 1 4 3 -2 6 -13 5 -11 0 -14 -3 -6 -6z"/>
<path d="M3610 4757 c0 -10 8 -17 18 -17 9 0 13 4 7 8 -5 4 -13 11 -17 16 -5
5 -8 2 -8 -7z"/>
<path d="M1235 4640 c-4 -6 9 -10 31 -10 42 0 42 4 2 14 -15 3 -30 2 -33 -4z"/>
<path d="M1966 4593 c5 -5 12 -12 16 -18 4 -6 8 -2 8 8 0 9 -7 17 -17 17 -9 0
-12 -3 -7 -7z"/>
<path d="M2671 4584 c0 -11 3 -14 6 -6 3 7 2 16 -1 19 -3 4 -6 -2 -5 -13z"/>
<path d="M2051 4514 c0 -11 3 -14 6 -6 3 7 2 16 -1 19 -3 4 -6 -2 -5 -13z"/>
<path d="M2538 4443 c7 -3 16 -2 19 1 4 3 -2 6 -13 5 -11 0 -14 -3 -6 -6z"/>
<path d="M2608 4443 c7 -3 16 -2 19 1 4 3 -2 6 -13 5 -11 0 -14 -3 -6 -6z"/>
<path d="M2076 4405 c4 -8 8 -15 10 -15 2 0 4 7 4 15 0 8 -4 15 -10 15 -5 0
-7 -7 -4 -15z"/>
<path d="M3651 4294 c0 -11 3 -14 6 -6 3 7 2 16 -1 19 -3 4 -6 -2 -5 -13z"/>
<path d="M3651 4254 c0 -11 3 -14 6 -6 3 7 2 16 -1 19 -3 4 -6 -2 -5 -13z"/>
<path d="M1071 4224 c0 -11 3 -14 6 -6 3 7 2 16 -1 19 -3 4 -6 -2 -5 -13z"/>
<path d="M3720 4177 c0 -10 8 -17 18 -17 9 0 13 4 7 8 -5 4 -13 11 -17 16 -5
5 -8 2 -8 -7z"/>
<path d="M3626 4123 c5 -5 12 -12 16 -18 4 -6 8 -2 8 8 0 9 -7 17 -17 17 -9 0
-12 -3 -7 -7z"/>
<path d="M3830 4070 c0 -6 7 -10 15 -10 8 0 15 2 15 4 0 2 -7 6 -15 10 -8 3
-15 1 -15 -4z"/>
<path d="M3736 4053 c5 -5 12 -12 16 -18 4 -6 8 -2 8 8 0 9 -7 17 -17 17 -9 0
-12 -3 -7 -7z"/>
<path d="M4480 4030 c0 -6 7 -10 15 -10 8 0 15 2 15 4 0 2 -7 6 -15 10 -8 3
-15 1 -15 -4z"/>
<path d="M4590 3920 c0 -5 5 -10 11 -10 5 0 7 5 4 10 -3 6 -8 10 -11 10 -2 0
-4 -4 -4 -10z"/>
<path d="M1106 3885 c-3 -8 -1 -15 4 -15 6 0 10 7 10 15 0 8 -2 15 -4 15 -2 0
-6 -7 -10 -15z"/>
<path d="M1026 3815 c-3 -8 -1 -15 4 -15 6 0 10 7 10 15 0 8 -2 15 -4 15 -2 0
-6 -7 -10 -15z"/>
<path d="M1120 3755 c0 -8 2 -15 4 -15 2 0 6 7 10 15 3 8 1 15 -4 15 -6 0 -10
-7 -10 -15z"/>
<path d="M4576 3755 c4 -8 8 -15 10 -15 2 0 4 7 4 15 0 8 -4 15 -10 15 -5 0
-7 -7 -4 -15z"/>
<path d="M1040 3680 c0 -5 7 -7 15 -4 8 4 15 8 15 10 0 2 -7 4 -15 4 -8 0 -15
-4 -15 -10z"/>
<path d="M4700 3670 c0 -5 5 -10 11 -10 5 0 7 5 4 10 -3 6 -8 10 -11 10 -2 0
-4 -4 -4 -10z"/>
<path d="M1010 3645 c0 -8 2 -15 4 -15 2 0 6 7 10 15 3 8 1 15 -4 15 -6 0 -10
-7 -10 -15z"/>
<path d="M890 3640 c0 -5 -39 -11 -87 -13 l-88 -3 93 -2 c76 -2 92 1 92 13 0
8 -2 15 -5 15 -3 0 -5 -4 -5 -10z"/>
<path d="M460 3543 c0 -9 249 -7 258 1 3 3 -54 6 -126 6 -73 0 -132 -3 -132
-7z"/>
<path d="M930 3535 c0 -8 2 -15 4 -15 2 0 6 7 10 15 3 8 1 15 -4 15 -6 0 -10
-7 -10 -15z"/>
<path d="M4691 3534 c0 -11 3 -14 6 -6 3 7 2 16 -1 19 -3 4 -6 -2 -5 -13z"/>
<path d="M4851 3314 c0 -11 3 -14 6 -6 3 7 2 16 -1 19 -3 4 -6 -2 -5 -13z"/>
<path d="M4725 3270 c-3 -5 -1 -10 4 -10 6 0 11 5 11 10 0 6 -2 10 -4 10 -3 0
-8 -4 -11 -10z"/>
<path d="M4811 3244 c0 -11 3 -14 6 -6 3 7 2 16 -1 19 -3 4 -6 -2 -5 -13z"/>
<path d="M4660 3100 c0 -5 7 -7 15 -4 8 4 15 8 15 10 0 2 -7 4 -15 4 -8 0 -15
-4 -15 -10z"/>
<path d="M4498 3083 c7 -3 16 -2 19 1 4 3 -2 6 -13 5 -11 0 -14 -3 -6 -6z"/>
<path d="M4435 3050 c-3 -5 -1 -10 4 -10 6 0 11 5 11 10 0 6 -2 10 -4 10 -3 0
-8 -4 -11 -10z"/>
<path d="M4521 2953 c1 -62 6 -56 11 15 2 23 0 42 -4 42 -5 0 -7 -26 -7 -57z"/>
<path d="M251 2954 c0 -11 3 -14 6 -6 3 7 2 16 -1 19 -3 4 -6 -2 -5 -13z"/>
<path d="M250 2875 c0 -72 15 -72 16 0 1 30 -2 55 -7 55 -5 0 -9 -25 -9 -55z"/>
<path d="M4441 2884 c0 -11 3 -14 6 -6 3 7 2 16 -1 19 -3 4 -6 -2 -5 -13z"/>
<path d="M280 2800 c0 -6 7 -10 15 -10 8 0 15 2 15 4 0 2 -7 6 -15 10 -8 3
-15 1 -15 -4z"/>
<path d="M578 2613 c7 -3 16 -2 19 1 4 3 -2 6 -13 5 -11 0 -14 -3 -6 -6z"/>
<path d="M611 2584 c0 -11 3 -14 6 -6 3 7 2 16 -1 19 -3 4 -6 -2 -5 -13z"/>
<path d="M4880 2400 c0 -6 7 -10 15 -10 8 0 15 2 15 4 0 2 -7 6 -15 10 -8 3
-15 1 -15 -4z"/>
<path d="M4920 2365 c0 -8 4 -15 10 -15 5 0 7 7 4 15 -4 8 -8 15 -10 15 -2 0
-4 -7 -4 -15z"/>
<path d="M4820 2346 c0 -2 7 -6 15 -10 8 -3 15 -1 15 4 0 6 -7 10 -15 10 -8 0
-15 -2 -15 -4z"/>
<path d="M604 2150 c0 -52 1 -74 3 -47 2 26 2 68 0 95 -2 26 -3 4 -3 -48z"/>
<path d="M680 2015 c0 -8 2 -15 4 -15 2 0 6 7 10 15 3 8 1 15 -4 15 -6 0 -10
-7 -10 -15z"/>
<path d="M4951 2014 c0 -11 3 -14 6 -6 3 7 2 16 -1 19 -3 4 -6 -2 -5 -13z"/>
<path d="M478 1963 c7 -3 16 -2 19 1 4 3 -2 6 -13 5 -11 0 -14 -3 -6 -6z"/>
<path d="M4841 1894 c0 -11 3 -14 6 -6 3 7 2 16 -1 19 -3 4 -6 -2 -5 -13z"/>
<path d="M311 1824 c0 -11 3 -14 6 -6 3 7 2 16 -1 19 -3 4 -6 -2 -5 -13z"/>
<path d="M360 1698 c0 -39 3 -69 6 -65 10 9 11 137 2 137 -4 0 -8 -32 -8 -72z"/>
<path d="M4761 1644 c0 -11 3 -14 6 -6 3 7 2 16 -1 19 -3 4 -6 -2 -5 -13z"/>
<path d="M390 1570 c0 -5 5 -10 11 -10 5 0 7 5 4 10 -3 6 -8 10 -11 10 -2 0
-4 -4 -4 -10z"/>
<path d="M4811 1544 c0 -11 3 -14 6 -6 3 7 2 16 -1 19 -3 4 -6 -2 -5 -13z"/>
<path d="M4770 1509 c0 -5 5 -7 10 -4 6 3 10 8 10 11 0 2 -4 4 -10 4 -5 0 -10
-5 -10 -11z"/>
<path d="M4578 1483 c12 -2 30 -2 40 0 9 3 -1 5 -23 4 -22 0 -30 -2 -17 -4z"/>
<path d="M4270 1433 c0 -15 2 -15 9 -4 7 11 13 12 23 3 8 -6 19 -8 25 -4 7 4
28 7 48 7 19 -1 35 2 35 7 0 4 -31 8 -70 8 -60 0 -70 -2 -70 -17z"/>
<path d="M375 1400 c3 -5 8 -10 11 -10 2 0 4 5 4 10 0 6 -5 10 -11 10 -5 0 -7
-4 -4 -10z"/>
<path d="M4076 1355 c-3 -8 -1 -15 4 -15 6 0 10 7 10 15 0 8 -2 15 -4 15 -2 0
-6 -7 -10 -15z"/>
<path d="M4160 1325 c0 -8 2 -15 4 -15 2 0 6 7 10 15 3 8 1 15 -4 15 -6 0 -10
-7 -10 -15z"/>
<path d="M541 1314 c0 -11 3 -14 6 -6 3 7 2 16 -1 19 -3 4 -6 -2 -5 -13z"/>
<path d="M4035 1280 c-3 -5 -1 -10 4 -10 6 0 11 5 11 10 0 6 -2 10 -4 10 -3 0
-8 -4 -11 -10z"/>
<path d="M571 1244 c0 -11 3 -14 6 -6 3 7 2 16 -1 19 -3 4 -6 -2 -5 -13z"/>
<path d="M3995 1240 c-3 -5 -1 -10 4 -10 6 0 11 5 11 10 0 6 -2 10 -4 10 -3 0
-8 -4 -11 -10z"/>
<path d="M491 1214 c0 -11 3 -14 6 -6 3 7 2 16 -1 19 -3 4 -6 -2 -5 -13z"/>
<path d="M4091 1214 c0 -11 3 -14 6 -6 3 7 2 16 -1 19 -3 4 -6 -2 -5 -13z"/>
<path d="M4050 1143 c0 -10 4 -14 8 -8 4 6 11 13 16 18 5 4 2 7 -7 7 -10 0
-17 -8 -17 -17z"/>
<path d="M611 1134 c0 -11 3 -14 6 -6 3 7 2 16 -1 19 -3 4 -6 -2 -5 -13z"/>
<path d="M1220 1100 c0 -6 7 -10 15 -10 8 0 15 2 15 4 0 2 -7 6 -15 10 -8 3
-15 1 -15 -4z"/>
<path d="M1128 1083 c7 -3 16 -2 19 1 4 3 -2 6 -13 5 -11 0 -14 -3 -6 -6z"/>
<path d="M778 1053 c18 -2 45 -2 60 0 15 2 0 4 -33 4 -33 0 -45 -2 -27 -4z"/>
<path d="M1206 1035 c4 -8 8 -15 10 -15 2 0 4 7 4 15 0 8 -4 15 -10 15 -5 0
-7 -7 -4 -15z"/>
<path d="M3891 1034 c0 -11 3 -14 6 -6 3 7 2 16 -1 19 -3 4 -6 -2 -5 -13z"/>
<path d="M1270 976 c0 -2 7 -6 15 -10 8 -3 15 -1 15 4 0 6 -7 10 -15 10 -8 0
-15 -2 -15 -4z"/>
<path d="M3931 964 c0 -11 3 -14 6 -6 3 7 2 16 -1 19 -3 4 -6 -2 -5 -13z"/>
<path d="M1440 957 c0 -10 8 -17 18 -17 9 0 13 4 7 8 -5 4 -13 11 -17 16 -5 5
-8 2 -8 -7z"/>
<path d="M1315 930 c3 -5 8 -10 11 -10 2 0 4 5 4 10 0 6 -5 10 -11 10 -5 0 -7
-4 -4 -10z"/>
<path d="M1425 860 c3 -5 8 -10 11 -10 2 0 4 5 4 10 0 6 -5 10 -11 10 -5 0 -7
-4 -4 -10z"/>
<path d="M1468 760 c2 -22 6 -40 8 -40 2 0 4 18 4 40 0 22 -3 40 -8 40 -4 0
-6 -18 -4 -40z"/>
<path d="M1551 744 c0 -11 3 -14 6 -6 3 7 2 16 -1 19 -3 4 -6 -2 -5 -13z"/>
<path d="M4003 725 c0 -22 2 -30 4 -17 2 12 2 30 0 40 -3 9 -5 -1 -4 -23z"/>
<path d="M1473 665 c0 -27 2 -38 4 -22 2 15 2 37 0 50 -2 12 -4 0 -4 -28z"/>
<path d="M3070 597 c0 -10 8 -17 18 -17 9 0 13 4 7 8 -5 4 -13 11 -17 16 -5 5
-8 2 -8 -7z"/>
<path d="M3922 595 c-11 -12 -10 -15 3 -15 8 0 15 7 15 15 0 18 -2 18 -18 0z"/>
<path d="M4050 565 c0 -8 2 -15 4 -15 2 0 6 7 10 15 3 8 1 15 -4 15 -6 0 -10
-7 -10 -15z"/>
<path d="M2475 550 c-3 -5 -1 -10 4 -10 6 0 11 5 11 10 0 6 -2 10 -4 10 -3 0
-8 -4 -11 -10z"/>
<path d="M3885 550 c-3 -5 -1 -10 4 -10 6 0 11 5 11 10 0 6 -2 10 -4 10 -3 0
-8 -4 -11 -10z"/>
<path d="M3838 463 c7 -3 16 -2 19 1 4 3 -2 6 -13 5 -11 0 -14 -3 -6 -6z"/>
<path d="M3131 384 c0 -11 3 -14 6 -6 3 7 2 16 -1 19 -3 4 -6 -2 -5 -13z"/>
<path d="M3760 390 c0 -5 7 -7 15 -4 8 4 15 8 15 10 0 2 -7 4 -15 4 -8 0 -15
-4 -15 -10z"/>
<path d="M1590 375 c0 -8 4 -15 10 -15 5 0 7 7 4 15 -4 8 -8 15 -10 15 -2 0
-4 -7 -4 -15z"/>
<path d="M1496 315 c4 -8 8 -15 10 -15 2 0 4 7 4 15 0 8 -4 15 -10 15 -5 0 -7
-7 -4 -15z"/>
<path d="M1738 293 c7 -3 16 -2 19 1 4 3 -2 6 -13 5 -11 0 -14 -3 -6 -6z"/>
<path d="M3323 293 c20 -2 54 -2 75 0 20 2 3 4 -38 4 -41 0 -58 -2 -37 -4z"/>
<path d="M1520 286 c0 -2 7 -6 15 -10 8 -3 15 -1 15 4 0 6 -7 10 -15 10 -8 0
-15 -2 -15 -4z"/>
<path d="M3580 279 c0 -5 5 -7 10 -4 6 3 10 8 10 11 0 2 -4 4 -10 4 -5 0 -10
-5 -10 -11z"/>
<path d="M3510 239 c0 -5 5 -7 10 -4 6 3 10 8 10 11 0 2 -4 4 -10 4 -5 0 -10
-5 -10 -11z"/>
<path d="M2288 223 c7 -3 16 -2 19 1 4 3 -2 6 -13 5 -11 0 -14 -3 -6 -6z"/>
<path d="M2420 207 c0 -8 6 -14 13 -14 8 0 14 6 14 14 0 7 -6 13 -14 13 -7 0
-13 -6 -13 -13z"/>
<path d="M2110 190 c-16 -5 9 -8 70 -8 79 0 87 2 50 9 -56 9 -88 9 -120 -1z"/>
<path d="M2318 133 c7 -3 16 -2 19 1 4 3 -2 6 -13 5 -11 0 -14 -3 -6 -6z"/>
<path d="M2278 103 c7 -3 16 -2 19 1 4 3 -2 6 -13 5 -11 0 -14 -3 -6 -6z"/>
</g>
</svg>
